<svg id="Capa_1" enable-background="new 0 0 512 512" height="512" viewBox="0 0 512 512" width="512" xmlns="http://www.w3.org/2000/svg"><g><path d="m511.984 455.507c-.072-.65.039-.582-.335-1.958l-15.418-48.961c-1.245-3.951-5.454-6.145-9.407-4.901-3.951 1.244-6.145 5.456-4.901 9.407l12.351 39.221h-150.521l-10.122-26.786c-3.406-9.013-12.168-15.069-21.804-15.069h-111.653c-9.636 0-18.398 6.056-21.804 15.069l-10.122 26.786h-150.523l21.638-68.709h438.776c4.142 0 7.5-3.358 7.5-7.5v-274.334c0-10.667-8.679-19.346-19.346-19.346h-35.886c-4.142 0-7.5 3.358-7.5 7.5s3.358 7.5 7.5 7.5h35.886c2.396 0 4.346 1.95 4.346 4.346v266.833h-429.278v-266.833c0-2.396 1.95-4.346 4.346-4.346h63.623v15.002h-45.47c-4.142 0-7.5 3.358-7.5 7.5v226.18c0 4.142 3.358 7.5 7.5 7.5h80.67c4.142 0 7.5-3.358 7.5-7.5s-3.358-7.5-7.5-7.5h-73.17v-211.18h37.97v146.962c0 11.292 9.187 20.479 20.479 20.479h252.381c11.292 0 20.479-9.187 20.479-20.479v-146.962h37.97v211.18h-261.212c-4.142 0-7.5 3.358-7.5 7.5s3.358 7.5 7.5 7.5h268.713c4.142 0 7.5-3.358 7.5-7.5v-226.18c0-4.142-3.358-7.5-7.5-7.5h-45.47v-74.467c0-11.292-9.187-20.479-20.479-20.479h-252.381c-11.292 0-20.479 9.187-20.479 20.479v44.464h-63.623c-10.667 0-19.346 8.679-19.346 19.346v273.18l-26.012 82.598c-.076.224-.349 1.292-.35 2.266v22.229c0 11.29 9.185 20.474 20.474 20.474h471.052c11.29 0 20.474-9.185 20.474-20.474v-22.229c0-.104-.011-.205-.016-.308zm-124.314-185.116c0 3.021-2.458 5.479-5.479 5.479h-252.381c-3.021 0-5.479-2.458-5.479-5.479v-176.965h263.34v176.965zm-263.34-236.43c0-3.021 2.458-5.479 5.479-5.479h252.381c3.021 0 5.479 2.458 5.479 5.479v44.464h-263.339zm68.071 392.871c1.214-3.213 4.338-5.372 7.773-5.372h111.652c3.435 0 6.559 2.159 7.773 5.372l8.118 21.483h-143.434zm304.599 51.212c0 3.019-2.456 5.474-5.474 5.474h-471.052c-3.019 0-5.474-2.456-5.474-5.474v-14.729h482z"/><path d="m182.128 46.954h-31.307c-4.142 0-7.5 3.358-7.5 7.5s3.358 7.5 7.5 7.5h31.307c4.142 0 7.5-3.358 7.5-7.5s-3.357-7.5-7.5-7.5z"/><path d="m347.525 180.11c-4.142 0-7.5 3.358-7.5 7.5v9.024h-13.081v-14.492c0-18.573-15.11-33.683-33.683-33.683h-29.761v-25.534c0-4.142-3.358-7.5-7.5-7.5s-7.5 3.358-7.5 7.5v25.534h-29.762c-18.573 0-33.683 15.11-33.683 33.683v14.492h-13.081v-9.024c0-4.142-3.358-7.5-7.5-7.5s-7.5 3.358-7.5 7.5v33.712c0 4.142 3.358 7.5 7.5 7.5s7.5-3.358 7.5-7.5v-9.688h13.081v12.201c0 18.573 15.11 33.683 33.683 33.683h74.523c18.573 0 33.683-15.11 33.683-33.683v-12.201h13.081v9.688c0 4.142 3.358 7.5 7.5 7.5s7.5-3.358 7.5-7.5v-33.712c0-4.142-3.358-7.5-7.5-7.5zm-35.581 43.725c0 10.302-8.381 18.683-18.683 18.683h-74.523c-10.302 0-18.683-8.381-18.683-18.683v-41.693c0-10.302 8.381-18.683 18.683-18.683h74.523c10.302 0 18.683 8.381 18.683 18.683z"/><path d="m279.528 211.379h-47.057c-4.142 0-7.5 3.358-7.5 7.5s3.358 7.5 7.5 7.5h47.057c4.142 0 7.5-3.358 7.5-7.5s-3.358-7.5-7.5-7.5z"/><path d="m359.182 45.84c-4.205 0-7.613 3.409-7.613 7.614s3.409 7.613 7.613 7.613c4.205 0 7.613-3.409 7.613-7.613 0-4.205-3.409-7.614-7.613-7.614z"/><path d="m232.472 189.042c0-4.205-3.409-7.614-7.613-7.614s-7.613 3.409-7.613 7.614 3.409 7.613 7.613 7.613 7.613-3.409 7.613-7.613z"/><path d="m287.142 181.428c-4.205 0-7.613 3.409-7.613 7.614s3.409 7.613 7.613 7.613c4.205 0 7.613-3.409 7.613-7.613s-3.409-7.614-7.613-7.614z"/></g></svg>