<svg id="Capa_1" enable-background="new 0 0 512 512" height="512" viewBox="0 0 512 512" width="512" xmlns="http://www.w3.org/2000/svg"><g><path d="m256 111c-79.953 0-145 65.047-145 145s65.047 145 145 145 145-65.047 145-145-65.047-145-145-145zm65 239.815c-18.504 12.724-40.895 20.185-65 20.185s-46.496-7.461-65-20.185v-4.815c0-24.813 20.187-45 45-45h40c24.813 0 45 20.187 45 45zm-90-104.815v-20c0-13.785 11.215-25 25-25s25 11.215 25 25v20c0 13.785-11.215 25-25 25s-25-11.215-25-25zm116.974 78.958c-6.65-22.706-23.759-40.98-45.747-49.215 5.542-8.583 8.773-18.789 8.773-29.743v-20c0-30.327-24.673-55-55-55s-55 24.673-55 55v20c0 10.954 3.231 21.16 8.773 29.743-21.987 8.235-39.097 26.509-45.747 49.215-14.451-19.227-23.026-43.109-23.026-68.958 0-63.411 51.589-115 115-115s115 51.589 115 115c0 25.849-8.575 49.731-23.026 68.958z"/><path d="m500.806 288.343-30.702-14.294c.606-6.41.896-12.305.896-18.049s-.29-11.639-.896-18.049l30.702-14.294c6.873-3.2 10.277-11.024 7.935-18.234l-18.541-57.063c-2.342-7.211-9.694-11.542-17.137-10.088l-33.124 6.459c-6.214-10.21-13.352-19.97-21.337-29.175l16.439-29.616c3.679-6.629 1.835-14.96-4.298-19.416l-48.541-35.267c-6.133-4.454-14.625-3.635-19.793 1.912l-23.114 24.816c-11.134-4.698-22.609-8.438-34.297-11.176l-4.109-33.63c-.919-7.523-7.308-13.179-14.889-13.179h-60c-7.581 0-13.97 5.656-14.889 13.181l-4.109 33.63c-11.689 2.738-23.163 6.477-34.297 11.176l-23.114-24.817c-5.167-5.548-13.661-6.366-19.793-1.912l-48.542 35.266c-6.133 4.456-7.977 12.787-4.298 19.416l16.439 29.616c-7.986 9.205-15.124 18.965-21.337 29.175l-33.124-6.459c-7.445-1.454-14.794 2.878-17.137 10.088l-18.54 57.063c-2.343 7.21 1.062 15.034 7.935 18.234l30.702 14.294c-.606 6.41-.896 12.305-.896 18.049s.29 11.639.896 18.049l-30.702 14.294c-6.873 3.2-10.277 11.024-7.935 18.234l18.541 57.063c2.342 7.21 9.691 11.539 17.137 10.088l33.124-6.459c6.214 10.21 13.352 19.969 21.338 29.174l-16.44 29.617c-3.679 6.629-1.835 14.96 4.298 19.416l48.541 35.267c6.134 4.456 14.626 3.635 19.793-1.912l23.114-24.816c11.134 4.698 22.609 8.438 34.297 11.176l4.109 33.63c.919 7.523 7.308 13.179 14.889 13.179h60c7.581 0 13.97-5.656 14.889-13.181l4.109-33.63c11.689-2.738 23.163-6.477 34.297-11.176l23.114 24.816c5.167 5.548 13.66 6.365 19.793 1.912l48.541-35.267c6.133-4.456 7.977-12.787 4.298-19.416l-16.439-29.616c7.986-9.205 15.124-18.965 21.337-29.175l33.124 6.459c7.442 1.453 14.794-2.878 17.137-10.088l18.541-57.062c2.342-7.209-1.062-15.033-7.935-18.233zm-35.035 53.398-30.491-5.946c-.068-.014-.138-.027-.207-.041l-.154-.029c-7.295-1.39-14.363 2.759-16.865 9.498-7.655 13.854-17.278 26.865-28.624 38.697-4.389 4.577-5.424 11.421-2.589 17.092.097.193.197.384.301.572l15.224 27.426-27.055 19.656-21.335-22.906c-4.478-4.874-11.623-6.236-17.583-3.353-15.191 7.355-31.214 12.574-47.622 15.511-6.481 1.16-11.448 6.411-12.247 12.946l-3.803 31.136h-33.442l-3.804-31.136c-.798-6.535-5.766-11.786-12.247-12.946-16.408-2.937-32.43-8.155-47.621-15.511-5.88-2.846-12.953-1.532-17.448 3.208-.031.032-.062.065-.092.098l-21.379 22.953-27.055-19.656 15.054-27.12c3.318-5.652 2.627-13.022-2.117-17.97-11.347-11.833-20.97-24.843-28.625-38.697-2.502-6.738-9.57-10.886-16.865-9.498l-.154.029c-.069.014-.138.027-.207.041l-30.491 5.946-10.334-31.806 28.437-13.239c.066-.031.177-.084.243-.116 5.843-2.825 9.207-9.089 8.334-15.521-1.302-9.591-1.908-17.554-1.908-25.059s.606-15.468 1.908-25.06c.873-6.432-2.535-12.717-8.379-15.542-.066-.032-.132-.063-.198-.095l-28.437-13.239 10.334-31.806 30.491 5.946c.068.014.138.027.207.041l.154.029c7.292 1.392 14.363-2.759 16.865-9.498 7.655-13.854 17.278-26.865 28.624-38.697 4.389-4.577 5.424-11.421 2.589-17.092-.097-.193-.197-.384-.301-.572l-15.224-27.425 27.055-19.656 21.335 22.906c4.478 4.874 11.623 6.235 17.583 3.353 15.191-7.355 31.214-12.574 47.622-15.511 6.481-1.16 11.448-6.411 12.247-12.946l3.804-31.136h33.442l3.804 31.136c.798 6.535 5.766 11.786 12.247 12.946 16.408 2.937 32.43 8.155 47.621 15.511 5.88 2.846 12.953 1.532 17.448-3.208.031-.032.062-.065.092-.098l21.379-22.953 27.055 19.656-15.224 27.426c-.104.188-.206.381-.302.574-2.835 5.671-1.799 12.513 2.59 17.09 11.346 11.832 20.969 24.843 28.624 38.697 2.502 6.739 9.573 10.892 16.865 9.498l.154-.029c.069-.014.138-.027.207-.041l30.491-5.946 10.334 31.806-28.436 13.239c-5.984 2.762-9.464 9.105-8.578 15.636 1.302 9.592 1.908 17.555 1.908 25.06s-.606 15.468-1.908 25.06c-.873 6.432 2.535 12.717 8.379 15.542.066.032.132.063.198.095l28.437 13.239z"/></g></svg>