<svg id="Capa_1" enable-background="new 0 0 512 512" height="512" viewBox="0 0 512 512" width="512" xmlns="http://www.w3.org/2000/svg"><g><path d="m432.771 113.321h-.604c-1.833-62.8-53.492-113.321-116.729-113.321-37.739 0-72.377 17.766-94.347 47.959-14.73-12.327-33.089-19.022-52.582-19.022-45.525 0-83.467 38.817-82.185 84.385-19.37 0-37.261 3.66-52.687 16.154-16.897 13.687-26.955 34.635-26.955 56.393 0 38.761 30.556 70.52 68.846 72.454l-.934 52.495-32.552 32.552c-3.117-1.544-6.623-2.417-10.331-2.417-12.878 0-23.355 10.478-23.355 23.355s10.478 23.355 23.355 23.355 23.355-10.478 23.355-23.355c0-3.708-.873-7.215-2.417-10.332l34.693-34.693c1.373-1.374 2.16-3.228 2.195-5.17l.99-55.697h148.139c4.143 0 7.5-3.357 7.5-7.5s-3.357-7.5-7.5-7.5h-147.871l.647-36.387c9.266-3.1 15.966-11.855 15.966-22.15 0-12.879-10.478-23.356-23.355-23.356s-23.355 10.478-23.355 23.356c0 10.213 6.593 18.91 15.743 22.075l-.646 36.351c-30.138-1.784-54.113-26.858-54.113-57.436 0-20.408 11.188-39.65 28.843-49.853 13.848-8.003 28.523-7.695 43.912-7.695 4.416 0 8.006-4.067 7.438-8.461-5.126-39.63 26.624-75.924 66.635-75.924 18.462 0 35.683 7.351 48.489 20.698 3.308 3.449 9.272 2.832 11.793-1.251 18.713-30.296 51.104-48.383 86.647-48.383 56.612 0 103.775 48.534 101.693 105.211-.299 4.287 3.137 8.11 7.482 8.11 15.375 0 29.515 1.812 42.288 11.254 14.584 10.78 23.415 28.142 23.415 46.294 0 31.732-25.815 57.548-57.548 57.548h-135.423l37.599-37.599c3.117 1.544 6.624 2.417 10.332 2.417 12.878 0 23.355-10.478 23.355-23.355 0-12.879-10.478-23.356-23.355-23.356-12.879 0-23.356 10.478-23.356 23.356 0 3.708.873 7.214 2.417 10.331l-75.021 75.021c-1.406 1.407-2.196 3.314-2.196 5.304v37.714h-66.17c-18.707 0-33.927 15.22-33.927 33.927v16.018c-25.64 3.655-45.421 25.746-45.421 52.38 0 26.63 19.781 48.716 45.421 52.37v13.974c0 16.587 13.495 30.082 30.083 30.082h157.787c16.588 0 30.083-13.495 30.083-30.082v-13.974c25.64-3.654 45.421-25.742 45.421-52.37 0-13.709-5.222-26.709-14.703-36.605-2.866-2.992-7.613-3.092-10.604-.227s-3.093 7.612-.228 10.604c6.794 7.091 10.535 16.405 10.535 26.229 0 18.338-13.092 33.673-30.421 37.163v-105.562c0-18.707-15.22-33.927-33.927-33.927h-68.93v-34.607l20.226-20.226h150.425c40.003 0 72.548-32.545 72.548-72.548s-32.546-72.548-72.548-72.548zm-401.059 259.343c-4.607 0-8.355-3.748-8.355-8.355s3.748-8.355 8.355-8.355 8.355 3.748 8.355 8.355-3.748 8.355-8.355 8.355zm52.341-196.141c4.607 0 8.355 3.749 8.355 8.356s-3.748 8.355-8.355 8.355-8.355-3.748-8.355-8.355 3.747-8.356 8.355-8.356zm32.55 239.051c0-18.343 13.091-33.686 30.421-37.176v74.343c-17.331-3.489-30.421-18.828-30.421-37.167zm231.816-75.897h-126.086c-4.143 0-7.5 3.357-7.5 7.5s3.357 7.5 7.5 7.5h127.644v127.241c0 8.316-6.767 15.082-15.083 15.082h-157.788c-8.316 0-15.083-6.766-15.083-15.082v-127.241h24.32c4.143 0 7.5-3.357 7.5-7.5s-3.357-7.5-7.5-7.5h-22.763c2.911-6.715 9.597-11.427 17.37-11.427h150.1c7.772 0 14.459 4.712 17.369 11.427zm-3.142-163.154c4.607 0 8.355 3.749 8.355 8.356s-3.748 8.355-8.355 8.355-8.356-3.748-8.356-8.355 3.749-8.356 8.356-8.356z"/><path d="m178.845 397.95c0 17.25 14.033 31.284 31.283 31.284s31.283-14.034 31.283-31.284-14.033-31.283-31.283-31.283-31.283 14.033-31.283 31.283zm47.566 0c0 8.979-7.305 16.284-16.283 16.284s-16.283-7.305-16.283-16.284 7.305-16.283 16.283-16.283 16.283 7.305 16.283 16.283z"/><path d="m301.872 429.234c17.25 0 31.283-14.034 31.283-31.284s-14.033-31.283-31.283-31.283-31.283 14.033-31.283 31.283 14.033 31.284 31.283 31.284zm0-47.567c8.979 0 16.283 7.305 16.283 16.283 0 8.979-7.305 16.284-16.283 16.284s-16.283-7.305-16.283-16.284c0-8.978 7.305-16.283 16.283-16.283z"/><path d="m211.78 440.271c-11.421 0-20.713 9.292-20.713 20.714 0 11.421 9.292 20.713 20.713 20.713h88.439c11.421 0 20.713-9.292 20.713-20.713 0-11.422-9.292-20.714-20.713-20.714zm36.72 26.427h-11.426v-11.427h11.426zm15-11.427h11.426v11.427h-11.426zm-57.433 5.714c0-3.15 2.563-5.714 5.713-5.714h10.294v11.427h-10.294c-3.15 0-5.713-2.562-5.713-5.713zm99.866 0c0 3.15-2.563 5.713-5.713 5.713h-10.294v-11.427h10.294c3.15 0 5.713 2.564 5.713 5.714z"/><path d="m451.303 184.88c0-12.879-10.478-23.356-23.355-23.356s-23.355 10.478-23.355 23.356 10.478 23.355 23.355 23.355 23.355-10.477 23.355-23.355zm-31.711 0c0-4.607 3.748-8.356 8.355-8.356s8.355 3.749 8.355 8.356-3.748 8.355-8.355 8.355-8.355-3.748-8.355-8.355z"/><path d="m188.837 177.38c-3.132-9.21-11.858-15.856-22.114-15.856-12.878 0-23.355 10.478-23.355 23.356s10.478 23.355 23.355 23.355c10.255 0 18.982-6.647 22.114-15.855h13.161c4.143 0 7.5-3.357 7.5-7.5v-43.91c0-1.989-.79-3.896-2.196-5.304l-19.64-19.64c1.544-3.117 2.417-6.624 2.417-10.332 0-12.878-10.478-23.355-23.356-23.355s-23.355 10.478-23.355 23.355c0 12.879 10.478 23.356 23.355 23.356 3.708 0 7.215-.873 10.332-2.417l17.443 17.442v33.304h-5.661zm-22.114 15.855c-4.607 0-8.355-3.748-8.355-8.355s3.748-8.356 8.355-8.356 8.356 3.749 8.356 8.356-3.749 8.355-8.356 8.355zm-8.356-87.541c0-4.607 3.748-8.355 8.355-8.355s8.356 3.748 8.356 8.355-3.749 8.356-8.356 8.356-8.355-3.748-8.355-8.356z"/><path d="m284.076 111.738h38.642c2.67 9.958 11.77 17.313 22.559 17.313 12.878 0 23.355-10.478 23.355-23.356s-10.478-23.355-23.355-23.355c-9.707 0-18.047 5.953-21.568 14.399h-42.74c-1.989 0-3.896.79-5.304 2.197l-24.97 24.971c-1.406 1.406-2.196 3.313-2.196 5.303v33.557c-9.209 3.132-15.855 11.859-15.855 22.114 0 12.878 10.478 23.355 23.355 23.355s23.355-10.478 23.355-23.355c0-10.255-6.646-18.982-15.855-22.114v-30.451zm61.201-14.399c4.607 0 8.355 3.748 8.355 8.355s-3.748 8.356-8.355 8.356-8.356-3.749-8.356-8.356 3.749-8.355 8.356-8.355zm-89.277 95.896c-4.607 0-8.355-3.748-8.355-8.355s3.748-8.356 8.355-8.356 8.355 3.749 8.355 8.356-3.748 8.355-8.355 8.355z"/></g></svg>