<svg id="Layer_1" enable-background="new 0 0 64 64" height="512" viewBox="0 0 64 64" width="512" xmlns="http://www.w3.org/2000/svg"><path d="m27 40v2h2v-2h2v2h2v-2h2v2h2v-2c1.7 0 3-1.3 3-3h2v-2h-2v-2h2v-2h-2v-2h2v-2h-2c0-1.7-1.3-3-3-3v-2h-2v2h-2v-2h-2v2h-2v-2h-2v2c-1.7 0-3 1.3-3 3h-2v2h2v2h-2v2h2v2h-2v2h2c0 1.7 1.3 3 3 3zm-1-13c0-.6.4-1 1-1h10c.6 0 1 .4 1 1v10c0 .6-.4 1-1 1h-10c-.6 0-1-.4-1-1z"/><path d="m36 28h-8v8h8zm-2 6h-4v-4h4z"/><path d="m2 41c0 5.9 4.7 10.7 10.6 11-2.2 2.4-2 6.2.4 8.5 1.1 1 2.5 1.6 4 1.6h9c2.5 0 4.7-1.3 6-3.4 1.3 2.1 3.5 3.4 6 3.4h9c3.3 0 6-2.7 6-6 0-1.5-.6-2.9-1.6-4 6.1-.2 10.8-5.3 10.6-11.4-.2-4.4-3-8.3-7.1-9.9 4.8-2.7 6.5-8.8 3.9-13.6-1.8-3.2-5.2-5.2-8.8-5.2h-2.5c2.2-2.5 2-6.2-.4-8.5-1.1-1-2.5-1.5-4-1.5h-5c-2.5 0-4.7 1.3-6 3.4-1.4-2.1-3.6-3.4-6.1-3.4h-5c-3.3 0-6 2.7-6 6 0 1.5.5 2.9 1.5 4h-2.5c-5.5 0-10 4.5-10 10 0 3.6 2 7 5.1 8.7-4.3 1.6-7.1 5.7-7.1 10.3zm11-9h1.5c3 0 5.5-2.5 5.5-5.5s-2.5-5.5-5.5-5.5h-.7c-.6-1.6-2.3-2.4-3.8-1.8-1.6.6-2.4 2.3-1.8 3.8.6 1.6 2.3 2.4 3.8 1.8.9-.3 1.5-1 1.8-1.8h.7c1.9 0 3.5 1.6 3.5 3.5s-1.6 3.5-3.5 3.5h-.5c-4.4 0-8-3.6-8-8s3.6-8 8-8h9.2c.6 1.6 2.3 2.4 3.8 1.8 1.6-.6 2.4-2.3 1.8-3.8-.6-1.6-2.3-2.4-3.8-1.8-.9.3-1.5 1-1.8 1.8h-2.2c-2.2 0-4-1.8-4-4s1.8-4 4-4h5c2.8 0 5 2.2 5 5v11h2v-11c0-2.8 2.2-5 5-5h5c2.2 0 4 1.8 4 4s-1.8 4-4 4h-2.2c-.6-1.6-2.3-2.4-3.8-1.8-1.6.6-2.4 2.3-1.8 3.8.6 1.6 2.3 2.4 3.8 1.8.9-.3 1.5-1 1.8-1.8h9.2c4.4 0 8 3.6 8 8s-3.6 8-8 8h-.5c-1.9 0-3.5-1.6-3.5-3.5s1.6-3.5 3.5-3.5h.7c.6 1.6 2.3 2.4 3.8 1.8s2.4-2.3 1.8-3.8-2.3-2.4-3.8-1.8c-.9.3-1.5 1-1.8 1.8h-.7c-3 0-5.5 2.5-5.5 5.5s2.5 5.5 5.5 5.5h1.5c5 0 9 4 9 9s-4 9-9 9h-2.5c-2.5 0-4.5-2-4.5-4.5s2-4.5 4.5-4.5h1.7c.6 1.6 2.3 2.4 3.8 1.8s2.4-2.3 1.8-3.8-2.3-2.4-3.8-1.8c-.9.3-1.5 1-1.8 1.8h-1.7c-3.6 0-6.5 2.9-6.5 6.5 0 1.7.7 3.3 1.8 4.5h-3c-.6-1.6-2.3-2.4-3.8-1.8-1.6.6-2.4 2.3-1.8 3.8.6 1.6 2.3 2.4 3.8 1.8.9-.3 1.5-1 1.8-1.8h6.2c2.2 0 4 1.8 4 4s-1.8 4-4 4h-9c-2.8 0-5-2.2-5-5v-11h-2v11c0 2.8-2.2 5-5 5h-9c-2.2 0-4-1.8-4-4s1.8-4 4-4h6.2c.6 1.6 2.3 2.4 3.8 1.8s2.4-2.3 1.8-3.8c-.6-1.6-2.3-2.4-3.8-1.8-.9.3-1.5 1-1.8 1.8h-3c2.5-2.6 2.4-6.7-.2-9.2-1.2-1.2-2.8-1.8-4.5-1.8h-1.7c-.6-1.6-2.3-2.4-3.8-1.8s-2.4 2.2-1.8 3.8 2.3 2.4 3.8 1.8c.9-.3 1.5-1 1.8-1.8h1.7c2.5 0 4.5 2 4.5 4.5s-2 4.5-4.5 4.5h-2.5c-5 0-9-4-9-9s4-9 9-9zm-1-10c0 .6-.4 1-1 1s-1-.4-1-1 .4-1 1-1 1 .4 1 1zm13-9c0-.6.4-1 1-1s1 .4 1 1-.4 1-1 1-1-.4-1-1zm14 0c0 .6-.4 1-1 1s-1-.4-1-1 .4-1 1-1 1 .4 1 1zm13 9c0-.6.4-1 1-1s1 .4 1 1-.4 1-1 1-1-.4-1-1zm0 18c0-.6.4-1 1-1s1 .4 1 1-.4 1-1 1-1-.4-1-1zm-13 11c0 .6-.4 1-1 1s-1-.4-1-1 .4-1 1-1 1 .4 1 1zm-14 0c0-.6.4-1 1-1s1 .4 1 1-.4 1-1 1-1-.4-1-1zm-13-11c0 .6-.4 1-1 1s-1-.4-1-1 .4-1 1-1 1 .4 1 1z"/></svg>