<?xml version="1.0" encoding="UTF-8" standalone="no"?>
<!-- Created with Inkscape (http://www.inkscape.org/) -->

<svg
   xmlns:dc="http://purl.org/dc/elements/1.1/"
   xmlns:cc="http://creativecommons.org/ns#"
   xmlns:rdf="http://www.w3.org/1999/02/22-rdf-syntax-ns#"
   xmlns:svg="http://www.w3.org/2000/svg"
   xmlns="http://www.w3.org/2000/svg"
   xmlns:sodipodi="http://sodipodi.sourceforge.net/DTD/sodipodi-0.dtd"
   xmlns:inkscape="http://www.inkscape.org/namespaces/inkscape"
   version="1.1"
   id="svg2"
   xml:space="preserve"
   width="1600"
   height="1600"
   viewBox="0 0 1600 1600"
   sodipodi:docname="logo_patlab.svg"
   inkscape:version="0.92.5 (2060ec1f9f, 2020-04-08)"><metadata
     id="metadata8"><rdf:RDF><cc:Work
         rdf:about=""><dc:format>image/svg+xml</dc:format><dc:type
           rdf:resource="http://purl.org/dc/dcmitype/StillImage" /><dc:title></dc:title></cc:Work></rdf:RDF></metadata><defs
     id="defs6" /><sodipodi:namedview
     pagecolor="#ffffff"
     bordercolor="#666666"
     borderopacity="1"
     objecttolerance="10"
     gridtolerance="10"
     guidetolerance="10"
     inkscape:pageopacity="0"
     inkscape:pageshadow="2"
     inkscape:window-width="1920"
     inkscape:window-height="1016"
     id="namedview4"
     showgrid="false"
     inkscape:zoom="0.834386"
     inkscape:cx="510.77351"
     inkscape:cy="827.31069"
     inkscape:window-x="0"
     inkscape:window-y="27"
     inkscape:window-maximized="1"
     inkscape:current-layer="g12" /><g
     id="g10"
     inkscape:groupmode="layer"
     inkscape:label="ink_ext_XXXXXX"
     transform="matrix(1.3333333,0,0,-1.3333333,0,1600)"><g
       id="g12"
       transform="scale(0.1)"><rect
         style="fill:#000000;fill-opacity:1;stroke:none;stroke-width:7.5;stroke-opacity:0.45779221"
         id="rect3115"
         width="6858.3369"
         height="6193.1768"
         x="2516.8208"
         y="-9626.8389"
         transform="scale(1,-1)" /><path
         d="m 6593.612,7838.7464 v 739.13 h 313.86 v 311.54 h -621.1304 v -1.02 h -2.88 l -0.4103,-1177.8 1275.2507,-1275.1697 -1610.3904,-1610.32 -1610.38,1610.32 1276.36,1275.0997 v 0 c 0,656.11 0,1178.89 0,1178.89 h -621.14 v -311.54 h 309.66 v -738.89 l -1403.68,-1403.5597 2049.18,-2049.08 2049.1204,2049.08 -1403.42,1403.3197"
         style="fill:#919191;fill-opacity:1;fill-rule:nonzero;stroke:none;stroke-width:0.99999994"
         id="path76-3"
         inkscape:connector-curvature="0" /><path
         d="m 6563.2948,7762.9866 v 739.13 h 313.86 v 311.54 h -621.13 v -1.02 h -2.88 l -0.41,-1177.8 1275.25,-1275.1705 -1610.39,-1610.32 -1610.38,1610.32 1276.36,1275.1005 v 0 c 0,656.11 0,1178.89 0,1178.89 h -621.14 v -311.54 h 309.66 v -738.89 l -1403.68,-1403.5605 2049.18,-2049.08 2049.12,2049.08 -1403.42,1403.3205"
         style="fill:#000000;fill-opacity:0.94375;fill-rule:nonzero;stroke:#515151;stroke-width:466.74749756;stroke-miterlimit:4;stroke-dasharray:none;stroke-opacity:1"
         id="path76-36"
         inkscape:connector-curvature="0" /><path
         d="m 6620.29,7829.69 v 739.13 h 313.86 v 311.54 h -621.13 v -1.02 h -2.88 L 6309.73,7701.54 7584.98,6426.37 5974.59,4816.05 4364.21,6426.37 5640.57,7701.47 v 0 c 0,656.11 0,1178.89 0,1178.89 h -621.14 v -311.54 h 309.66 V 7829.93 L 3925.41,6426.37 5974.59,4377.29 8023.71,6426.37 6620.29,7829.69"
         style="fill:#ffffff;fill-opacity:1;fill-rule:nonzero;stroke:#ffffff;stroke-width:466.74749756;stroke-miterlimit:4;stroke-dasharray:none;stroke-opacity:1"
         id="path76"
         inkscape:connector-curvature="0" /><path
         style="fill:#8a8a8a;fill-opacity:0.94375;stroke:none;stroke-width:280.42367554;stroke-miterlimit:4;stroke-dasharray:none;stroke-opacity:1"
         d="m 4947.8444,6390.4173 -5.5506,-5.55 1000.4895,-1000.49 1000.4897,1000.49 -5.5506,5.55 z"
         id="rect3134-7"
         inkscape:connector-curvature="0" /><path
         style="fill:#ffffff;fill-opacity:0.94375;stroke:none;stroke-width:280.42367554;stroke-miterlimit:4;stroke-dasharray:none;stroke-opacity:1"
         d="m 5007.8444,6450.4173 -5.5506,-5.5504 1000.4895,-1000.4896 1000.4897,1000.4896 -5.5506,5.5504 z"
         id="rect3134"
         inkscape:connector-curvature="0" /></g></g></svg>