<?xml version="1.0"?>
<svg xmlns="http://www.w3.org/2000/svg" viewBox="0 0 64 64" width="512" height="512"><g id="migrating"><path d="M54,23h-.88A13.994,13.994,0,0,0,41,2,14.041,14.041,0,0,0,27.59,12.04,11,11,0,0,0,9.42,23.02,8.011,8.011,0,0,0,2,31a7.927,7.927,0,0,0,2.08,5.36A2.736,2.736,0,0,0,4,37V56H3.12a1,1,0,0,0-.98,1.17l.46,2.56a.359.359,0,0,0,.02.11A3.021,3.021,0,0,0,5.5,62h35a3.021,3.021,0,0,0,2.88-2.16.359.359,0,0,0,.02-.11l.46-2.56A1,1,0,0,0,42.88,56H42V44h1a1,1,0,0,0,.97-.76l.17-.67.59.36a1,1,0,0,0,1.22-.15l2.83-2.83a1.016,1.016,0,0,0,.26-.95H54a8,8,0,0,0,0-16ZM41.45,59.32a1.014,1.014,0,0,1-.95.68H5.5a1.014,1.014,0,0,1-.95-.68L4.32,58H19a1,1,0,0,0,1,1h6a1,1,0,0,0,1-1H41.68ZM32.76,37.97l.67.17-.36.59a1,1,0,0,0,.15,1.22l2.83,2.83a1,1,0,0,0,1.22.15l.59-.36.17.67A1,1,0,0,0,39,44h1V56H26a1,1,0,0,0-1,1H21a1,1,0,0,0-1-1H6V37a1.064,1.064,0,0,1,.11-.45A.988.988,0,0,1,7,36H32v1A1,1,0,0,0,32.76,37.97ZM48,36.22l-1.22.3a1.007,1.007,0,0,0-.68.59,1.019,1.019,0,0,0,.06.9l.65,1.08-1.72,1.72-1.08-.65a1.019,1.019,0,0,0-.9-.06,1.007,1.007,0,0,0-.59.68L42.22,42H39.78l-.3-1.22a1.007,1.007,0,0,0-.59-.68,1.019,1.019,0,0,0-.9.06l-1.08.65-1.72-1.72.65-1.08a1.019,1.019,0,0,0,.06-.9,1.007,1.007,0,0,0-.68-.59L34,36.22V33.78l1.22-.3a1.007,1.007,0,0,0,.68-.59,1.019,1.019,0,0,0-.06-.9l-.65-1.08,1.72-1.72,1.08.64a.989.989,0,0,0,.9.07,1.007,1.007,0,0,0,.59-.68l.3-1.22h2.44l.3,1.22a1.007,1.007,0,0,0,.59.68.989.989,0,0,0,.9-.07l1.08-.64,1.72,1.72-.65,1.08a1.019,1.019,0,0,0-.06.9,1.007,1.007,0,0,0,.68.59l1.22.3ZM54,37H50V33a1,1,0,0,0-.76-.97l-.67-.17.36-.59a1,1,0,0,0-.15-1.22l-2.83-2.83a1,1,0,0,0-1.22-.15l-.59.36-.17-.67A1,1,0,0,0,43,26H39a1,1,0,0,0-.97.76l-.17.67-.59-.36a1,1,0,0,0-1.22.15l-2.83,2.83a1,1,0,0,0-.15,1.22l.36.59-.67.17A1,1,0,0,0,32,33v1H7a2.988,2.988,0,0,0-1.79.6A5.99,5.99,0,0,1,10,25h.84a1.013,1.013,0,0,0,.84-.45,1.034,1.034,0,0,0,.08-.95A8.747,8.747,0,0,1,11,20a9,9,0,0,1,16.33-5.22.991.991,0,0,0,1.05.39,1,1,0,0,0,.75-.83A11.992,11.992,0,0,1,53,16a11.818,11.818,0,0,1-2.56,7.38A1,1,0,0,0,51.23,25H54a6,6,0,0,1,0,12Z"/><path d="M41,6V8a8.009,8.009,0,0,1,8,8h2A10.011,10.011,0,0,0,41,6Z"/><path d="M13,20h2a5.006,5.006,0,0,1,5-5V13A7.008,7.008,0,0,0,13,20Z"/><path d="M41,31a4,4,0,1,0,4,4A4,4,0,0,0,41,31Zm0,6a2,2,0,1,1,2-2A2,2,0,0,1,41,37Z"/><rect x="22" y="30" width="2" height="2"/><path d="M41,19H23a1,1,0,0,0-1,1v8h2V21H40v3h2V20A1,1,0,0,0,41,19Z"/><path d="M33,46h-.074A6.711,6.711,0,0,0,33,45a7.008,7.008,0,0,0-7-7,6.657,6.657,0,0,0-5.3,2.668A6.294,6.294,0,0,0,18,40a6.006,6.006,0,0,0-6,6v.126A4,4,0,0,0,13,54H33a4,4,0,0,0,0-8Zm0,6H13a2,2,0,0,1,0-4,1,1,0,0,0,1-1V46a4,4,0,0,1,4-4,4.487,4.487,0,0,1,2.426.818,1,1,0,0,0,1.43-.3A4.842,4.842,0,0,1,26,40a4.986,4.986,0,0,1,4.708,6.667A1,1,0,0,0,31.651,48H33a2,2,0,0,1,0,4Z"/><rect x="44" y="50" width="2" height="2"/><path d="M52,50H48v2h5a1,1,0,0,0,1-1V41H52Z"/></g></svg>
