<?xml version="1.0" encoding="iso-8859-1"?>
<!-- Generator: Adobe Illustrator 19.0.0, SVG Export Plug-In . SVG Version: 6.00 Build 0)  -->
<svg version="1.1" id="Capa_1" xmlns="http://www.w3.org/2000/svg" xmlns:xlink="http://www.w3.org/1999/xlink" x="0px" y="0px"
	 viewBox="0 0 480.908 480.908" style="enable-background:new 0 0 480.908 480.908;" xml:space="preserve">
<g>
	<g>
		<path d="M456.061,390.901c-7.114-3.934-15.11-5.996-23.239-5.993c-11.717,0.003-23.023,4.314-31.768,12.113L300.107,281.673
			c6.73-9.74,10.937-20.998,12.243-32.765h59.942l21.67,36.117c1.445,2.41,4.049,3.884,6.859,3.883h48
			c2.81,0.001,5.414-1.473,6.859-3.883l24-40c1.523-2.533,1.523-5.701,0-8.234l-24-40c-1.445-2.41-4.049-3.884-6.859-3.883h-48
			c-2.81-0.001-5.414,1.473-6.859,3.883l-21.67,36.117H312.35c-1.279-11.579-5.365-22.671-11.904-32.312L410.032,91.011
			c6.966,3.628,14.659,5.642,22.509,5.894c0.539,0.02,1.086,0.027,1.625,0.027c11.891-0.016,23.304-4.685,31.797-13.008
			c9.476-9.188,14.835-21.816,14.859-35.015c-0.006-26.508-21.499-47.992-48.007-47.986c-26.396,0.006-47.834,21.325-47.985,47.721
			c-0.426,12.085,4.017,23.834,12.332,32.614L289.975,188.443c-11.293-10.64-25.734-17.329-41.153-19.063v-54.042l22.742,12.57
			c3.867,2.137,8.734,0.735,10.872-3.132c0.868-1.57,1.183-3.387,0.894-5.157l-5.961-36.539l25.18-25.805
			c3.085-3.162,3.022-8.226-0.14-11.311c-1.195-1.166-2.725-1.929-4.375-2.181l-34.477-5.27L248.064,5.51
			c-1.877-4-6.641-5.721-10.641-3.844c-1.69,0.793-3.05,2.153-3.843,3.844l-15.492,33.004l-34.477,5.27
			c-4.367,0.668-7.365,4.75-6.697,9.117c0.253,1.65,1.015,3.18,2.181,4.376l25.18,25.805l-5.961,36.539
			c-0.711,4.361,2.248,8.472,6.608,9.183c1.771,0.289,3.587-0.026,5.157-0.894l22.742-12.57v54.048
			c-13.241,1.452-25.814,6.572-36.302,14.783L90.911,71.951c12.974-23.402,4.52-52.892-18.882-65.866
			C48.626-6.889,19.137,1.565,6.163,24.967C-6.811,48.37,1.642,77.859,25.045,90.833c18.028,9.995,40.407,7.488,55.777-6.248
			l104.248,110.771c-8.78,10.728-14.259,23.773-15.773,37.553H85.768L63.978,189.33c-2.355-3.952-7.468-5.247-11.42-2.892
			c-1.19,0.709-2.184,1.703-2.892,2.892l-48,96c-1.976,3.952-0.373,8.758,3.579,10.734c1.111,0.555,2.336,0.844,3.577,0.844h96
			c4.419,0,8.001-3.582,8.001-8.001c0-1.242-0.289-2.467-0.844-3.577l-18.211-36.422h75.527
			c1.734,15.419,8.423,29.859,19.063,41.153L81.013,397.405c-19.553-17.529-49.614-15.887-67.143,3.666s-15.887,49.614,3.666,67.143
			s49.614,15.887,67.143-3.666c13.444-14.997,15.981-36.837,6.332-54.516L200.51,300.533c9.641,6.539,20.733,10.625,32.312,11.904
			v72.472h-32c-4.417-0.001-7.999,3.579-8,7.996c0,0.001,0,0.003,0,0.004v80c-0.001,4.417,3.579,7.999,7.996,8
			c0.001,0,0.003,0,0.004,0h80c4.417,0.001,7.999-3.579,8-7.996c0-0.001,0-0.003,0-0.004v-80c0.001-4.417-3.579-7.999-7.996-8
			c-0.001,0-0.003,0-0.004,0h-32v-72.472c15.188-1.71,29.432-8.229,40.652-18.608l101.379,115.841
			c-12.824,23.189-4.421,52.384,18.768,65.208s52.384,4.421,65.208-18.768C487.653,432.92,479.25,403.725,456.061,390.901z
			 M405.353,208.908h38.937l19.203,32l-19.203,32h-38.938l-19.203-32L405.353,208.908z M432.822,16.908
			c17.665,0.019,31.981,14.335,32,32c-0.014,8.859-3.61,17.336-9.969,23.504c-5.795,5.669-13.647,8.737-21.75,8.5
			c-17.549,0.281-32.004-13.717-32.285-31.267c-0.003-0.156-0.004-0.312-0.004-0.468C400.981,31.527,415.173,17.218,432.822,16.908z
			 M48.822,80.908c-17.673,0-32-14.327-32-32s14.327-32,32-32s32,14.327,32,32C80.803,66.574,66.487,80.889,48.822,80.908z
			 M21.767,280.908l35.055-70.113l35.055,70.113H21.767z M48.822,464.908c-17.673,0-32-14.327-32-32c0-17.673,14.327-32,32-32
			s32,14.327,32,32C80.803,450.574,66.487,464.889,48.822,464.908z M216.76,105.936l3.961-24.262
			c0.407-2.506-0.399-5.057-2.172-6.875l-17.125-17.555l23.305-3.563c2.636-0.404,4.898-2.094,6.031-4.508l10.063-21.438
			l10.063,21.437c1.134,2.414,3.395,4.104,6.031,4.508l23.305,3.563l-17.125,17.555c-1.773,1.818-2.579,4.369-2.172,6.875
			l3.961,24.262l-20.195-11.16c-2.406-1.333-5.329-1.333-7.734,0L216.76,105.936z M272.822,400.908v64h-64v-64H272.822z
			 M240.822,296.908c-30.928,0-56-25.072-56-56c0-30.928,25.072-56,56-56c30.928,0,56,25.072,56,56
			C296.786,271.821,271.735,296.872,240.822,296.908z M432.822,464.908c-17.673,0-32-14.327-32-32c0-17.673,14.327-32,32-32
			c17.673,0,32,14.327,32,32C464.803,450.574,450.488,464.889,432.822,464.908z"/>
	</g>
</g>
<g>
</g>
<g>
</g>
<g>
</g>
<g>
</g>
<g>
</g>
<g>
</g>
<g>
</g>
<g>
</g>
<g>
</g>
<g>
</g>
<g>
</g>
<g>
</g>
<g>
</g>
<g>
</g>
<g>
</g>
</svg>
