<svg height="512pt" viewBox="0 0 512 512.10604" width="512pt" xmlns="http://www.w3.org/2000/svg"><path d="m209.121094 111.039062c-16.496094 0-29.867188 13.371094-29.867188 29.867188s13.371094 29.867188 29.867188 29.867188 29.867187-13.371094 29.867187-29.867188-13.371093-29.867188-29.867187-29.867188zm0 42.667969c-7.070313 0-12.800782-5.730469-12.800782-12.800781s5.730469-12.800781 12.800782-12.800781c7.070312 0 12.800781 5.730469 12.800781 12.800781s-5.730469 12.800781-12.800781 12.800781zm0 0"/><path d="m302.988281 170.773438c12.078125 0 22.96875-7.277344 27.59375-18.4375 4.621094-11.160157 2.066407-24.007813-6.476562-32.546876-8.539063-8.542968-21.386719-11.097656-32.546875-6.476562-11.160156 4.625-18.4375 15.511719-18.4375 27.59375 0 16.496094 13.371094 29.867188 29.867187 29.867188zm0-42.667969c7.070313 0 12.800781 5.730469 12.800781 12.800781s-5.730468 12.800781-12.800781 12.800781c-7.070312 0-12.800781-5.730469-12.800781-12.800781s5.730469-12.800781 12.800781-12.800781zm0 0"/><path d="m256.054688 273.171875c-56.527344.0625-102.339844 45.871094-102.398438 102.402344 0 9.425781 7.640625 17.066406 17.066406 17.066406h170.664063c9.425781 0 17.066406-7.640625 17.066406-17.066406-.058594-56.53125-45.871094-102.339844-102.398437-102.402344zm-13.285157 102.402344 13.285157-35.433594 13.285156 35.433594zm44.796875 0-23.515625-62.738281c-1.246093-3.339844-4.433593-5.550782-7.996093-5.550782s-6.75 2.210938-7.996094 5.550782l-23.515625 62.738281h-53.820313c0-47.128907 38.203125-85.335938 85.332032-85.335938 47.128906 0 85.332031 38.207031 85.332031 85.335938zm0 0"/><path d="m512.054688 311.574219c-.027344-25.910157-21.023438-46.90625-46.933594-46.933594h-46.933594c0-14.140625-11.460938-25.601563-25.597656-25.601563h-102.402344v-25.601562h25.601562c28.265626-.027344 51.171876-22.933594 51.199219-51.199219v-42.664062c-.027343-28.265625-22.933593-51.171875-51.199219-51.203125h-51.199218v-18.636719c11.753906-4.15625 18.804687-16.175781 16.695312-28.464844-2.109375-12.289062-12.761718-21.269531-25.230468-21.269531s-23.121094 8.980469-25.230469 21.269531c-2.109375 12.289063 4.941406 24.308594 16.695312 28.464844v18.636719h-51.199219c-28.265624.03125-51.171874 22.9375-51.199218 51.203125v42.664062c.027344 28.265625 22.933594 51.171875 51.199218 51.199219h25.601563v25.601562h-102.402344c-14.136719 0-25.597656 11.460938-25.597656 25.601563h-46.933594c-17.507812-.027344-33.570312 9.707031-41.648437 25.238281s-6.824219 34.273438 3.25 48.589844v139.863281c-5.472656 7.285157-8.464844 16.128907-8.5351565 25.242188 0 4.710937 3.8203125 8.53125 8.5351565 8.53125 4.710937 0 8.53125-3.820313 8.53125-8.53125 0-14.140625 11.460937-25.601563 25.601562-25.601563 14.136719 0 25.597656 11.460938 25.597656 25.601563 0 4.710937 3.820313 8.53125 8.535157 8.53125 4.710937 0 8.53125-3.820313 8.53125-8.53125-.070313-9.113281-3.058594-17.960938-8.53125-25.242188v-119.824219h17.066406v110.929688c0 14.140625 11.460937 25.601562 25.597656 25.601562h273.070313c14.136718 0 25.597656-11.460937 25.597656-25.601562v-110.929688h17.066406v119.824219c-5.46875 7.285157-8.460937 16.128907-8.53125 25.242188 0 4.710937 3.820313 8.53125 8.53125 8.53125 4.714844 0 8.535156-3.820313 8.535156-8.53125 0-14.140625 11.460938-25.601563 25.597657-25.601563 14.140625 0 25.601562 11.460938 25.601562 25.601563 0 4.710937 3.820313 8.53125 8.53125 8.53125 4.714844 0 8.535157-3.820313 8.535157-8.53125-.070313-9.113281-3.0625-17.960938-8.535157-25.242188v-139.863281c5.554688-7.867188 8.539063-17.265625 8.535157-26.894531zm-256-294.402344c4.710937 0 8.535156 3.820313 8.535156 8.535156 0 4.710938-3.824219 8.53125-8.535156 8.53125-4.710938 0-8.535157-3.820312-8.535157-8.53125 0-4.714843 3.824219-8.535156 8.535157-8.535156zm-93.867188 145.066406v-42.664062c0-18.851563 15.28125-34.136719 34.132812-34.136719h119.46875c18.851563 0 34.132813 15.285156 34.132813 34.136719v42.664062c0 18.851563-15.28125 34.132813-34.132813 34.132813h-119.46875c-18.851562 0-34.132812-15.28125-34.132812-34.132813zm76.800781 51.199219h34.132813v25.601562h-34.132813zm-179.199219 251.070312c-10.871093-4.808593-23.265624-4.808593-34.132812 0v-111.179687c6.597656 3.398437 13.910156 5.175781 21.332031 5.179687h12.800781zm-12.800781-123.070312c-16.496093 0-29.867187-13.371094-29.867187-29.863281 0-16.496094 13.371094-29.867188 29.867187-29.867188h46.933594v59.730469zm354.132813 128c0 4.714844-3.820313 8.535156-8.53125 8.535156h-273.070313c-4.710937 0-8.53125-3.820312-8.53125-8.535156v-204.796875c0-4.714844 3.820313-8.535156 8.53125-8.535156h273.070313c4.710937 0 8.53125 3.820312 8.53125 8.535156zm17.066406-187.730469h46.933594c16.496094 0 29.867187 13.371094 29.867187 29.867188 0 16.492187-13.371093 29.863281-29.867187 29.863281h-46.933594zm34.132812 182.808594v-106.007813h12.800782c7.421875-.003906 14.734375-1.78125 21.332031-5.179687v111.179687c-10.867187-4.808593-23.261719-4.808593-34.132813 0zm0 0"/><path d="m187.789062 409.707031c-10.355468 0-19.691406 6.234375-23.652343 15.800781-3.960938 9.566407-1.773438 20.578126 5.550781 27.898438 7.320312 7.324219 18.332031 9.511719 27.898438 5.550781 9.566406-3.960937 15.800781-13.296875 15.800781-23.652343 0-14.136719-11.460938-25.597657-25.597657-25.597657zm0 34.132813c-4.714843 0-8.535156-3.820313-8.535156-8.535156 0-4.710938 3.820313-8.53125 8.535156-8.53125 4.710938 0 8.53125 3.820312 8.53125 8.53125 0 4.714843-3.820312 8.535156-8.53125 8.535156zm0 0"/><path d="m256.054688 409.707031c-14.136719 0-25.601563 11.460938-25.601563 25.597657 0 14.140624 11.464844 25.601562 25.601563 25.601562 14.136718 0 25.601562-11.460938 25.601562-25.601562 0-14.136719-11.464844-25.597657-25.601562-25.597657zm0 34.132813c-4.710938 0-8.535157-3.820313-8.535157-8.535156 0-4.710938 3.824219-8.53125 8.535157-8.53125 4.710937 0 8.535156 3.820312 8.535156 8.53125 0 4.714843-3.824219 8.535156-8.535156 8.535156zm0 0"/><path d="m324.320312 409.707031c-14.136718 0-25.597656 11.460938-25.597656 25.597657 0 14.140624 11.460938 25.601562 25.597656 25.601562 14.140626 0 25.601563-11.460938 25.601563-25.601562 0-14.136719-11.460937-25.597657-25.601563-25.597657zm0 34.132813c-4.710937 0-8.53125-3.820313-8.53125-8.535156 0-4.710938 3.820313-8.53125 8.53125-8.53125 4.714844 0 8.535157 3.820312 8.535157 8.53125 0 4.714843-3.820313 8.535156-8.535157 8.535156zm0 0"/><path d="m162.1875 298.773438c0 4.710937-3.820312 8.53125-8.53125 8.53125-4.714844 0-8.535156-3.820313-8.535156-8.53125 0-4.714844 3.820312-8.535157 8.535156-8.535157 4.710938 0 8.53125 3.820313 8.53125 8.535157zm0 0"/><path d="m366.988281 298.773438c0 4.710937-3.820312 8.53125-8.535156 8.53125-4.710937 0-8.53125-3.820313-8.53125-8.53125 0-4.714844 3.820313-8.535157 8.53125-8.535157 4.714844 0 8.535156 3.820313 8.535156 8.535157zm0 0"/></svg>