<?xml version="1.0" encoding="UTF-8" standalone="no"?>
<svg
   xmlns:dc="http://purl.org/dc/elements/1.1/"
   xmlns:cc="http://creativecommons.org/ns#"
   xmlns:rdf="http://www.w3.org/1999/02/22-rdf-syntax-ns#"
   xmlns:svg="http://www.w3.org/2000/svg"
   xmlns="http://www.w3.org/2000/svg"
   xml:space="preserve"
   style="enable-background:new 0 0 480.001 480.001;"
   viewBox="0 0 480.001 480.001"
   y="0px"
   x="0px"
   id="Capa_1"
   version="1.1"><metadata
   id="metadata97"><rdf:RDF><cc:Work
       rdf:about=""><dc:format>image/svg+xml</dc:format><dc:type
         rdf:resource="http://purl.org/dc/dcmitype/StillImage" /><dc:title></dc:title></cc:Work></rdf:RDF></metadata><defs
   id="defs95" />
<g
   id="g6">
	<g
   id="g4">
		<path
   id="path2"
   d="M319.961,79.809c-0.009-0.903-0.172-1.799-0.48-2.648l-0.08-0.136c-0.102-0.207-0.217-0.407-0.344-0.6    c-0.311-0.637-0.706-1.229-1.176-1.76c-0.215-0.223-0.442-0.434-0.68-0.632c-0.487-0.422-1.024-0.782-1.6-1.072    c-0.256-0.151-0.523-0.282-0.8-0.392c-0.891-0.359-1.84-0.551-2.8-0.568h-144c-0.96,0.017-1.909,0.209-2.8,0.568    c-0.275,0.11-0.542,0.238-0.8,0.384c-0.574,0.295-1.111,0.658-1.6,1.08c-0.238,0.198-0.465,0.409-0.68,0.632    c-0.47,0.532-0.868,1.124-1.184,1.76c-0.104,0.208-0.248,0.376-0.336,0.592c-0.024,0.05-0.05,0.098-0.08,0.144    c-0.308,0.849-0.471,1.745-0.48,2.648c0,0.064,0,0.12,0,0.192v88c0,0.072,0,0.128,0,0.192c0.009,0.903,0.172,1.799,0.48,2.648    c0.03,0.046,0.056,0.094,0.08,0.144c0.088,0.216,0.232,0.384,0.336,0.592c0.318,0.635,0.715,1.227,1.184,1.76    c0.215,0.223,0.442,0.434,0.68,0.632c0.489,0.422,1.026,0.785,1.6,1.08c0.258,0.146,0.525,0.274,0.8,0.384    c0.891,0.359,1.84,0.552,2.8,0.568h144c0.96-0.016,1.909-0.209,2.8-0.568c0.275-0.11,0.542-0.238,0.8-0.384    c0.574-0.295,1.111-0.658,1.6-1.08c0.238-0.198,0.465-0.409,0.68-0.632c0.472-0.531,0.87-1.123,1.184-1.76    c0.104-0.208,0.248-0.376,0.336-0.6l0.08-0.136c0.308-0.849,0.471-1.745,0.48-2.648c0-0.064,0.04-0.12,0.04-0.192v-88    C320.001,79.929,319.961,79.873,319.961,79.809z M290.961,88.001l-50.96,45.296l-50.96-45.296H290.961z M176.001,97.809    l29.464,26.192l-29.464,26.192V97.809z M189.041,160.001l28.464-25.304l17.184,15.28c3.03,2.691,7.594,2.691,10.624,0    l17.184-15.28l28.464,25.304H189.041z M304.001,150.193l-29.464-26.192l29.464-26.192V150.193z" />
	</g>
</g>
<g
   id="g12">
	<g
   id="g10">
		<path
   id="path8"
   d="M312.001,240.001h-304c-4.418,0-8,3.582-8,8v224c0,4.418,3.582,8,8,8h304c4.418,0,8-3.582,8-8v-224    C320.001,243.583,316.419,240.001,312.001,240.001z M304.001,464.001h-288v-208h288V464.001z" />
	</g>
</g>
<g
   id="g18">
	<g
   id="g16">
		<path
   id="path14"
   d="M104.001,272.001h-64c-4.418,0-8,3.582-8,8v64c0,4.418,3.582,8,8,8h64c4.418,0,8-3.582,8-8v-64    C112.001,275.583,108.419,272.001,104.001,272.001z M96.001,336.001h-48v-48h48V336.001z" />
	</g>
</g>
<g
   id="g24">
	<g
   id="g22">
		<path
   id="path20"
   d="M280.001,288.001h-144c-4.418,0-8,3.582-8,8s3.582,8,8,8h144c4.418,0,8-3.582,8-8S284.419,288.001,280.001,288.001z" />
	</g>
</g>
<g
   id="g30">
	<g
   id="g28">
		<path
   id="path26"
   d="M280.001,320.001h-144c-4.418,0-8,3.582-8,8s3.582,8,8,8h144c4.418,0,8-3.582,8-8S284.419,320.001,280.001,320.001z" />
	</g>
</g>
<g
   id="g36">
	<g
   id="g34">
		<path
   id="path32"
   d="M280.001,368.001h-240c-4.418,0-8,3.582-8,8s3.582,8,8,8h240c4.418,0,8-3.582,8-8S284.419,368.001,280.001,368.001z" />
	</g>
</g>
<g
   id="g42">
	<g
   id="g40">
		<path
   id="path38"
   d="M280.001,400.001h-240c-4.418,0-8,3.582-8,8s3.582,8,8,8h240c4.418,0,8-3.582,8-8S284.419,400.001,280.001,400.001z" />
	</g>
</g>
<g
   id="g48">
	<g
   id="g46">
		<path
   id="path44"
   d="M280.001,432.001h-240c-4.418,0-8,3.582-8,8s3.582,8,8,8h240c4.418,0,8-3.582,8-8S284.419,432.001,280.001,432.001z" />
	</g>
</g>
<g
   id="g54">
	<g
   id="g52">
		<path
   id="path50"
   d="M472.001,280.001h-9.136c1.515-5.226,1.515-10.774,0-16h9.136c4.418,0,8-3.582,8-8c0-4.418-3.582-8-8-8h-19.056    c-4.843-4.237-10.863-6.896-17.256-7.624l-44.064-44.064c-1.947-17.472-17.69-30.057-35.162-28.11    c-13.175,1.469-24.061,10.949-27.326,23.798h-41.136c-4.418,0-8,3.582-8,8v32c0,4.418,3.582,8,8,8s8-3.582,8-8v-24h33.136    c2.913,11.202,11.662,19.951,22.864,22.864v33.136h-24c-4.418,0-8,3.582-8,8s3.582,8,8,8h32c4.418,0,8-3.582,8-8v-28.688    l32.376,32.376c1.868,17.405,17.492,30.001,34.897,28.133c6.561-0.704,12.738-3.438,17.671-7.821h19.056c4.418,0,8-3.582,8-8    S476.419,280.001,472.001,280.001z M360.001,216.001c-8.837,0-16-7.163-16-16s7.163-16,16-16s16,7.163,16,16    S368.837,216.001,360.001,216.001z M404.049,256.737l-28.8-28.8c5.351-2.935,9.753-7.337,12.688-12.688l28.8,28.8    C411.386,246.984,406.984,251.386,404.049,256.737z M432.001,288.001c-8.837,0-16-7.163-16-16s7.163-16,16-16s16,7.163,16,16    S440.837,288.001,432.001,288.001z" />
	</g>
</g>
<g
   id="g60">
	<g
   id="g58">
		<path
   id="path56"
   d="M192.001,24.001h-41.136c-4.329-17.039-21.651-27.343-38.69-23.014c-12.849,3.264-22.329,14.15-23.798,27.326    L44.313,72.377c-6.393,0.728-12.413,3.387-17.256,7.624H8.001c-4.418,0-8,3.582-8,8s3.582,8,8,8h9.136    c-1.515,5.226-1.515,10.774,0,16H8.001c-4.418,0-8,3.582-8,8s3.582,8,8,8h19.056c13.086,11.627,33.12,10.445,44.747-2.641    c4.383-4.933,7.117-11.11,7.821-17.671l32.376-32.376v28.688c0,4.418,3.582,8,8,8h32c4.418,0,8-3.582,8-8s-3.582-8-8-8h-24V62.865    c11.202-2.913,19.951-11.662,22.864-22.864h33.136v24c0,4.418,3.582,8,8,8s8-3.582,8-8v-32    C200.001,27.583,196.419,24.001,192.001,24.001z M48.001,120.001c-8.837,0-16-7.163-16-16s7.163-16,16-16s16,7.163,16,16    S56.837,120.001,48.001,120.001z M75.937,88.754C73.002,83.402,68.6,79,63.249,76.065l28.8-28.8    c2.935,5.351,7.337,9.753,12.688,12.688L75.937,88.754z M120.001,48.001c-8.837,0-16-7.163-16-16s7.163-16,16-16s16,7.163,16,16    S128.837,48.001,120.001,48.001z" />
	</g>
</g>
<g
   id="g62">
</g>
<g
   id="g64">
</g>
<g
   id="g66">
</g>
<g
   id="g68">
</g>
<g
   id="g70">
</g>
<g
   id="g72">
</g>
<g
   id="g74">
</g>
<g
   id="g76">
</g>
<g
   id="g78">
</g>
<g
   id="g80">
</g>
<g
   id="g82">
</g>
<g
   id="g84">
</g>
<g
   id="g86">
</g>
<g
   id="g88">
</g>
<g
   id="g90">
</g>
</svg>