<?xml version="1.0" encoding="iso-8859-1"?>
<!-- Generator: Adobe Illustrator 19.0.0, SVG Export Plug-In . SVG Version: 6.00 Build 0)  -->
<svg version="1.1" id="Capa_1" xmlns="http://www.w3.org/2000/svg" xmlns:xlink="http://www.w3.org/1999/xlink" x="0px" y="0px"
	 viewBox="0 0 390 390" style="enable-background:new 0 0 390 390;" xml:space="preserve">
<path d="M360,90L360,90V0H30v105l0,0v55.025c0,15.375,6.115,29.407,15.725,39.975H45v190h105h95h105V193.365
	c6.466-9.516,10-20.994,10-33.34V90z M300.775,205h-1.051C275.201,205,255,184.549,255,160.025V105h90v55.025
	C345,184.549,325.299,205,300.775,205z M150,105h90v55.025C240,184.549,220.299,205,195.775,205h-1.051
	C170.201,205,150,184.549,150,160.025V105z M345,15v75h-89.75h-15h-90h-15H45V15H345z M45,105h90v55.025
	C135,184.549,115.299,205,90.775,205h-1.051C65.201,205,45,184.549,45,160.025V105z M165,375V275h65v100H165z M245,375V260h-95v115
	H60V211.506C68.752,216.579,78.901,220,89.725,220h1.051c22.323,0,41.804-12.37,51.975-30.608
	C152.92,207.63,172.401,220,194.725,220h1.051c22.323,0,41.804-12.37,51.975-30.608C257.92,207.63,277.401,220,299.725,220h1.051
	c12.735,0,24.538-4.537,34.225-11.379V375H245z"/>
<g>
</g>
<g>
</g>
<g>
</g>
<g>
</g>
<g>
</g>
<g>
</g>
<g>
</g>
<g>
</g>
<g>
</g>
<g>
</g>
<g>
</g>
<g>
</g>
<g>
</g>
<g>
</g>
<g>
</g>
</svg>
