<svg id="Smart_control" height="512" viewBox="0 0 64 64" width="512" xmlns="http://www.w3.org/2000/svg" data-name="Smart control"><path d="m44.586 16.586a2 2 0 1 0 2.828 0 2 2 0 0 0 -2.828 0z"/><path d="m50.242 13.757a6 6 0 0 0 -8.484 0l1.414 1.414a4.1 4.1 0 0 1 5.656 0z"/><path d="m53.071 10.929a10 10 0 0 0 -14.142 0l1.414 1.414a8 8 0 0 1 11.314 0z"/><path d="m54.485 9.515 1.415-1.415a14.016 14.016 0 0 0 -19.8 0l1.414 1.414a12.014 12.014 0 0 1 16.971.001z"/><path d="m27 44v6h10v-8h-2v3a1 1 0 0 1 -1 1h-4a1 1 0 0 1 -1-1v-1.78a2.974 2.974 0 0 1 -2 .78z"/><path d="m41 55a1 1 0 0 1 -1 1h-4a1 1 0 0 1 -1-1v-3h-2v8h10v-8h-2z"/><path d="m15.79 42h11.21a1 1 0 0 0 1-1v-31a1 1 0 0 0 -1-1h-18a1 1 0 0 0 -1 1v19.59l1.16 1.15.84-.51v-18.23a1 1 0 0 1 1-1h14a1 1 0 0 1 1 1v25a1 1 0 0 1 -1 1h-9.37a6.018 6.018 0 0 1 .37 2.07v.42a5.915 5.915 0 0 1 -.21 1.51z"/><path d="m24 13h-12v16.03l.27-.16a2.812 2.812 0 0 1 3.86 3.86l-1.87 3.12c.05.04.09.1.14.15h9.6zm-6 12a4 4 0 1 1 4-4 4 4 0 0 1 -4 4z"/><circle cx="18" cy="21" r="2"/><path d="m31 42h2v2h-2z"/><path d="m12.29 36.71a1.014 1.014 0 0 1 -.15-1.22l2.28-3.79a.82.82 0 0 0 -1.12-1.12l-3.12 1.88a2 2 0 0 1 -2.44-.31l-1.15-1.15a1.983 1.983 0 0 1 -.59-1.41v-6.4l-1.93 4.82a.986.986 0 0 0 -.07.38v10.28a3.018 3.018 0 0 0 .6 1.8l.66.88a7 7 0 0 1 1.3 5.35l-1.44 13.3h8.75l-1.72-14.08a2.94 2.94 0 0 1 .47-2.15l.71-1.06a3.993 3.993 0 0 0 .67-2.22v-.42a4 4 0 0 0 -1.17-2.83z"/><path d="m37 52h2v2h-2z"/><path d="m53 55a1 1 0 0 1 -1 1h-4a1 1 0 0 1 -1-1v-3h-2v8h10v-8h-2z"/><path d="m37.99 24.06-7.99 2.66v2.89l7.68-2.56a.967.967 0 0 1 .65.01l21 7.3.67.23v-2.88z"/><path d="m49 52h2v2h-2z"/><path d="m25 52h2v2h-2z"/><path d="m29 55a1 1 0 0 1 -1 1h-4a1 1 0 0 1 -1-1v-3h-2v8h10v-8h-2z"/><path d="m39 42v8h10v-8h-2v3a1 1 0 0 1 -1 1h-4a1 1 0 0 1 -1-1v-3z"/><path d="m43 42h2v2h-2z"/><path d="m25 44h-8v16h2v-9a1 1 0 0 1 1-1h5z"/><path d="m30 31.72v8.28h20a1 1 0 0 1 1 1v9h5a1 1 0 0 1 1 1v9h2v-23.64l-21.01-7.3z"/></svg>