<svg id="Layer_3" enable-background="new 0 0 64 64" height="512" viewBox="0 0 64 64" width="512" xmlns="http://www.w3.org/2000/svg"><g><path d="m44 17h-24v11c0 6.617 5.383 12 12 12s12-5.383 12-12zm-11 21h-2v-2h2zm0-7.083v3.083h-2v-4c0-.553.448-1 1-1 2.206 0 4-1.794 4-4s-1.794-4-4-4-4 1.794-4 4c0 .557.112 1.095.333 1.6l-1.833.8c-.332-.758-.5-1.566-.5-2.4 0-3.309 2.691-6 6-6s6 2.691 6 6c0 2.968-2.166 5.439-5 5.917z"/><path d="m18 26.816v-5.631c-1.161.414-2 1.514-2 2.816s.839 2.401 2 2.815z"/><path d="m34.656 52.93 3.93-3.93-1.729-1.729z"/><path d="m40.054 40.371-.459-.142-1.785 4.589 3.013-.602z"/><path d="m43.223 5.251c-.547-1.367-1.852-2.251-3.325-2.251-.957 0-1.856.372-2.532 1.049-1.26 1.259-2.932 1.951-4.711 1.951h-1.311c-1.778 0-3.451-.692-4.71-1.951-.676-.677-1.575-1.049-2.532-1.049-1.473 0-2.778.884-3.326 2.251l-2.299 5.749h27.046z"/><path d="m23.293 48.293 1.679-1.679-3.168-.634c-.542-.108-.893-.635-.784-1.177l.753-3.764-5.243 1.613c-2.112.65-3.53 2.571-3.53 4.78v13.568h5v-11h2v11h11v-3.586l-7.707-7.707c-.391-.391-.391-1.023 0-1.414z"/><path d="m46 21.184v5.631c1.161-.414 2-1.514 2-2.816s-.839-2.401-2-2.815z"/><path d="m47.47 42.652-5.243-1.613.753 3.764c.108.542-.243 1.068-.784 1.177l-3.168.634 1.679 1.679c.391.391.391 1.023 0 1.414l-7.707 7.707v3.586h11v-11h2v11h5v-13.568c0-2.209-1.418-4.13-3.53-4.78zm-5.47 16.348h-6v-2h6z"/><path d="m32 42c-1.818 0-3.551-.359-5.146-.993l5.146 13.234 5.146-13.234c-1.595.634-3.328.993-5.146.993z"/><path d="m53 13h-6-30-6c-.551 0-1 .448-1 1s.449 1 1 1h42c.551 0 1-.448 1-1s-.449-1-1-1z"/><path d="m23.946 40.371-.769 3.845 3.013.602-1.785-4.589z"/><path d="m27.143 47.271-1.729 1.729 3.93 3.93z"/></g></svg>