<svg height="452pt" viewBox="-5 0 452 452" width="452pt" xmlns="http://www.w3.org/2000/svg"><path d="m393.667969 0h-345.757813c-26.449218.03125-47.878906 21.460938-47.910156 47.910156v293.460938c.03125 26.449218 21.460938 47.882812 47.910156 47.910156h41.148438v26.71875c.023437 19.871094 16.128906 35.976562 36 36h151.757812c16.300782-.023438 30.558594-10.976562 34.78125-26.722656 19.695313-2.101563 35.804688-16.625 39.933594-36h42.136719c26.449219-.027344 47.882812-21.460938 47.910156-47.910156v-293.457032c-.027344-26.449218-21.460937-47.878906-47.910156-47.910156zm-116.851563 440h-151.757812c-13.246094-.015625-23.984375-10.75-24-24v-72.347656c.015625-13.25 10.753906-23.984375 24-24h151.757812c13.25.015625 23.984375 10.75 24 24v72.347656c-.015625 13.25-10.75 23.984375-24 24zm-40.253906-145.449219c.15625 0 .285156.128907.285156.285157v12.816406h-71.820312v-12.816406c0-.15625.128906-.285157.285156-.285157zm76.253906 118.449219v-66.34375c16.027344 2.925781 27.679688 16.878906 27.699219 33.167969 0 .941406-.042969 1.867187-.117187 2.785156-.011719.101563-.015626.199219-.023438.300781-1.402344 15.070313-12.667969 27.371094-27.558594 30.089844zm13.851563-111.199219c-7.648438 0-13.851563-6.203125-13.851563-13.851562 0-7.652344 6.199219-13.851563 13.851563-13.851563 7.648437-.003906 13.851562 6.199219 13.851562 13.847656-.011719 7.644532-6.207031 13.835938-13.851562 13.84375zm67 75.488281h-41.222657c-.792968-14.136718-8.101562-27.105468-19.777343-35.117187v-29.089844c12.75-3.042969 21.207031-15.148437 19.675781-28.167969-1.53125-13.019531-12.566406-22.832031-25.675781-22.832031s-24.144531 9.8125-25.675781 22.832031c-1.53125 13.019532 6.925781 25.125 19.675781 28.167969v23.191407c-2.949219-.941407-5.992188-1.578126-9.070313-1.898438-4.222656-15.746094-18.480468-26.699219-34.78125-26.722656h-27.96875v-12.816406c-.007812-6.78125-5.503906-12.277344-12.285156-12.285157h-29.890625v-12.441406c0-3.3125-2.683594-6-6-6-3.3125 0-6 2.6875-6 6v12.441406h-29.359375c-6.78125.007813-12.277344 5.503907-12.285156 12.285157v12.816406h-27.96875c-19.871094.023437-35.976563 16.125-36 36v33.628906h-41.148438c-19.824218-.023438-35.886718-16.085938-35.910156-35.910156v-226.597656h417.578125v226.597656c-.019531 19.824218-16.085937 35.890625-35.910156 35.910156zm35.910156-274.511718h-417.578125v-54.867188c.023438-19.824218 16.085938-35.886718 35.910156-35.910156h345.757813c19.824219.023438 35.890625 16.085938 35.910156 35.910156zm0 0"/><path d="m124.050781 35.925781h-.070312c-12.082031-.015625-21.890625 9.761719-21.910157 21.84375-.019531 12.082031 9.761719 21.890625 21.839844 21.910157h.070313c12.082031.019531 21.890625-9.761719 21.910156-21.84375.019531-12.082032-9.761719-21.890626-21.839844-21.910157zm-.070312 31.753907h-.03125c-5.453125-.007813-9.871094-4.4375-9.859375-9.890626.007812-5.457031 4.433594-9.871093 9.890625-9.863281h.03125c5.453125.007813 9.867187 4.4375 9.859375 9.890625-.007813 5.457032-4.4375 9.871094-9.890625 9.863282zm0 0"/><path d="m52.734375 35.699219h-.070313c-12.023437.0625-21.746093 9.816406-21.761718 21.84375-.019532 12.023437 9.671875 21.808593 21.695312 21.90625h.070313c12.027343-.058594 21.746093-9.8125 21.765625-21.839844.019531-12.027344-9.671875-21.8125-21.699219-21.910156zm-.066406 31.75h-.03125c-5.417969-.0625-9.773438-4.472657-9.761719-9.890625.007812-5.414063 4.375-9.8125 9.792969-9.859375h.03125c5.414062.0625 9.769531 4.476562 9.761719 9.890625-.007813 5.417968-4.378907 9.816406-9.792969 9.859375zm0 0"/><path d="m195.363281 36.148438h-.074219c-12.023437.0625-21.746093 9.816406-21.765624 21.84375-.019532 12.023437 9.671874 21.8125 21.699218 21.910156h.070313c12.027343-.0625 21.746093-9.820313 21.765625-21.84375.015625-12.027344-9.675782-21.8125-21.699219-21.910156zm6.890625 28.882812c-3.167968 3.148438-8.050781 3.777344-11.914062 1.539062-3.863282-2.242187-5.742188-6.796874-4.582032-11.109374 1.15625-4.3125 5.066407-7.308594 9.53125-7.3125h.03125c3.996094.015624 7.589844 2.433593 9.105469 6.125 1.515625 3.695312.660157 7.941406-2.171875 10.757812zm0 0"/><path d="m144.511719 354.96875h-1.144531c-9.9375.011719-17.988282 8.0625-18 18v11.046875c0 3.316406 2.6875 6 6 6h25.144531c3.316406 0 6-2.683594 6-6v-11.046875c-.011719-9.9375-8.0625-17.988281-18-18zm6 23.046875h-13.144531v-5.046875c.003906-3.3125 2.6875-6 6-6h1.144531c3.3125.003906 5.996093 2.6875 6 6zm0 0"/><path d="m258.507812 354.96875h-1.144531c-9.9375.007812-17.988281 8.0625-18 18v11.046875c0 3.316406 2.6875 6 6 6h25.144531c3.316407 0 6-2.683594 6-6v-11.046875c-.011718-9.9375-8.0625-17.988281-18-18zm6 23.046875h-13.144531v-5.046875c.003907-3.3125 2.6875-6 6-6h1.144531c3.3125.003906 5.996094 2.6875 6 6zm0 0"/><path d="m226.085938 398.089844h-50.296876c-3.3125 0-6 2.6875-6 6v1.144531c.019532 16.5625 13.441407 29.984375 30 30h2.292969c16.5625-.015625 29.980469-13.4375 30-30v-1.144531c0-3.3125-2.683593-6-5.996093-6zm-24 25.144531h-2.296876c-8.066406-.007813-15.148437-5.378906-17.335937-13.144531h36.964844c-2.1875 7.765625-9.265625 13.136718-17.332031 13.144531zm0 0"/><path d="m400.367188 210.726562h-8.394532c-3.3125 0-6 2.6875-6 6s2.6875 6 6 6h8.394532c3.3125 0 6-2.6875 6-6s-2.6875-6-6-6zm0 0"/><path d="m366.808594 210.726562h-141.15625c-3.316406 0-6 2.6875-6 6s2.683594 6 6 6h141.15625c3.316406 0 6-2.6875 6-6s-2.683594-6-6-6zm0 0"/><path d="m206.9375 216.726562c0-3.3125-2.6875-6-6-6h-41.910156c-3.3125 0-6 2.6875-6 6s2.6875 6 6 6h41.910156c3.3125 0 6-2.6875 6-6zm0 0"/><path d="m69.773438 210.726562c-3.316407 0-6 2.6875-6 6s2.683593 6 6 6h64.808593c3.3125 0 6-2.6875 6-6s-2.6875-6-6-6zm0 0"/><path d="m41.214844 222.726562h.808594c3.3125 0 6-2.6875 6-6s-2.6875-6-6-6h-.808594c-3.316406 0-6 2.6875-6 6s2.683594 6 6 6zm0 0"/><path d="m400.367188 173.917969h-57.417969c-3.316407 0-6 2.6875-6 6s2.683593 6 6 6h57.417969c3.3125 0 6-2.6875 6-6s-2.6875-6-6-6zm0 0"/><path d="m315.363281 185.917969c3.3125 0 6-2.6875 6-6s-2.6875-6-6-6h-12.027343c-3.316407 0-6 2.6875-6 6s2.683593 6 6 6zm0 0"/><path d="m281.523438 179.917969c0-3.3125-2.683594-6-6-6h-160.921876c-3.3125 0-6 2.6875-6 6s2.6875 6 6 6h160.921876c3.316406 0 6-2.6875 6-6zm0 0"/><path d="m41.214844 185.917969h48.597656c3.3125 0 6-2.6875 6-6s-2.6875-6-6-6h-48.597656c-3.316406 0-6 2.6875-6 6s2.683594 6 6 6zm0 0"/><path d="m400.367188 140.226562h-137.46875c-3.3125 0-6 2.6875-6 6s2.6875 6 6 6h137.46875c3.3125 0 6-2.6875 6-6s-2.6875-6-6-6zm0 0"/><path d="m191.351562 152.226562h43.585938c3.3125 0 6-2.6875 6-6s-2.6875-6-6-6h-43.585938c-3.316406 0-6 2.6875-6 6s2.683594 6 6 6zm0 0"/><path d="m166.714844 152.226562h.519531c3.316406 0 6-2.6875 6-6s-2.683594-6-6-6h-.519531c-3.3125 0-6 2.6875-6 6s2.6875 6 6 6zm0 0"/><path d="m41.214844 152.226562h97.691406c3.3125 0 6-2.6875 6-6s-2.6875-6-6-6h-97.691406c-3.316406 0-6 2.6875-6 6s2.683594 6 6 6zm0 0"/><path d="m289.082031 247.535156h-3.046875c-3.3125 0-6 2.6875-6 6s2.6875 6 6 6h3.046875c3.3125 0 6-2.6875 6-6s-2.6875-6-6-6zm0 0"/><path d="m260.5 247.535156h-54.511719c-3.3125 0-6 2.6875-6 6s2.6875 6 6 6h54.515625c3.3125 0 6-2.6875 6-6s-2.6875-6-6-6zm0 0"/><path d="m171.214844 247.535156h-130c-3.3125 0-6 2.6875-6 6s2.6875 6 6 6h130c3.316406 0 6-2.6875 6-6s-2.683594-6-6-6zm0 0"/></svg>