<?xml version="1.0" encoding="iso-8859-1"?>
<!-- Generator: Adobe Illustrator 19.0.0, SVG Export Plug-In . SVG Version: 6.00 Build 0)  -->
<svg version="1.1" id="Capa_1" xmlns="http://www.w3.org/2000/svg" xmlns:xlink="http://www.w3.org/1999/xlink" x="0px" y="0px"
	 viewBox="0 0 512.001 512.001" style="enable-background:new 0 0 512.001 512.001;" xml:space="preserve">
<g>
	<g>
		<g>
			<path d="M459.725,455.363l-9.775-40.166c2.904-2.45,5.729-4.935,8.25-7.479c2.358-2.408,23.083-24.133,23.083-43.683
				c0-1.642,0.067-3.608,0.2-5.75c6.477-2.148,11.477-7.352,13.367-13.908c0.488-1.945,0.839-3.922,1.05-5.917
				c0.113-1.12,0.292-2.233,0.533-3.333c0.746-2.187,1.896-4.214,3.392-5.975c1.108-1.542,2.225-3.1,3.233-4.808
				c6.718-12.092,3.711-27.268-7.11-35.885c1.039-17.748,1.485-64.775-20.581-86.848c-26.3-26.3-72.45-8.042-84.033-2.833
				c-26.017-4.167-46.7,0.558-61.508,14.117c-23.445,21.442-24.508,58.664-23.633,75.56c-4.624,3.692-7.983,8.733-9.608,14.423
				c-2.027,7.306-1.049,15.119,2.717,21.7c1.066,1.77,2.243,3.471,3.525,5.092c1.285,1.428,2.301,3.077,3,4.867
				c0.325,1.367,0.5,2.725,0.683,4.033c0.146,8.164,4.923,15.534,12.317,19c0.608,0.25,1.217,0.483,1.825,0.692
				c0.133,2.15,0.2,4.133,0.2,5.775c0,19.55,20.725,41.275,23.125,43.725c2.496,2.519,5.309,4.994,8.208,7.438l-9.775,40.166
				c-10.718,6.663-43.112,27.763-51.375,44.288c-1.321,2.646-1.179,5.786,0.376,8.302c1.555,2.515,4.3,4.047,7.257,4.049h204.8
				c2.957-0.001,5.703-1.533,7.257-4.048s1.697-5.656,0.376-8.302C502.838,483.125,470.443,462.025,459.725,455.363z
				 M341.342,225.484c11.183-10.242,27.892-13.417,49.667-9.45c0.142,0.029,0.282-0.01,0.423,0.01
				c0.361,0.101,0.73,0.175,1.102,0.223h0.258c0.275-0.041,0.548-0.096,0.818-0.167c0.138-0.018,0.267-0.056,0.403-0.081
				c1.067-0.15,2.093-0.512,3.019-1.065c5.716-2.643,46.931-20.617,66.269-1.279c8.414,10.556,13.414,23.424,14.333,36.892
				c-11.32,4.665-32.696,11.051-48.267,5.875c-6.248-2.109-12.322-4.703-18.167-7.758c-13.537-7.369-28.886-10.749-44.267-9.75
				c-16.434,0.538-31.813,8.232-42.098,21.061C326.437,247.002,332.232,234.886,341.342,225.484z M337.917,364.034
				c0-3.742-0.292-8.808-0.808-13.917c-0.135-2.197-1.148-4.248-2.811-5.69s-3.836-2.155-6.03-1.977
				c-0.851-0.014-1.694-0.171-2.492-0.467c-1.458-0.691-1.675-0.792-2.358-5.75c-0.238-1.916-0.571-3.818-1-5.7
				c-1.173-4.131-3.229-7.958-6.024-11.217c-0.841-1.049-1.618-2.148-2.325-3.292c-1.467-2.589-1.847-5.655-1.059-8.524h0
				c0.88-3.025,2.978-5.549,5.792-6.967c0.048-0.024,0.075-0.071,0.123-0.095c0.576-0.34,1.108-0.749,1.585-1.218
				c0.365-0.253,0.71-0.534,1.031-0.841c0.315-0.443,0.586-0.915,0.811-1.409c0.65-0.765,0.993-1.743,0.966-2.746
				c0.025-0.152,0.047-0.301,0.064-0.453c0.08-0.168,0.208-0.297,0.278-0.472c0.15-0.367,15.241-37.3,43.275-37.3
				c12.729-0.99,25.468,1.774,36.642,7.95c6.561,3.419,13.379,6.319,20.392,8.675c19.31,6.46,41.957,0.475,55.161-4.348
				c0.294,7.953,0.112,15.917-0.545,23.848c-0.004,0.046,0.018,0.084,0.015,0.129c-0.011,0.71,0.069,1.419,0.238,2.108
				c0.028,0.403,0.084,0.804,0.167,1.2c0.518,0.954,1.052,1.9,1.602,2.835c0.298,0.278,0.616,0.535,0.95,0.769
				c0.5,0.497,1.061,0.929,1.671,1.283l0.108,0.083c2.676,1.339,4.71,3.688,5.653,6.529c0.943,2.841,0.717,5.939-0.628,8.613
				c-0.725,1.233-1.558,2.358-2.358,3.467c-2.838,3.519-4.931,7.58-6.15,11.933c-0.395,1.737-0.69,3.496-0.883,5.267
				c-0.114,1.206-0.309,2.403-0.583,3.583c-0.838,1.691-2.629,2.694-4.508,2.525c-4.49-0.12-8.329,3.206-8.85,7.667
				c-0.517,5.108-0.808,10.175-0.808,13.917c0,8.542-9.383,22.733-18.175,31.708c-4.335,4.154-8.877,8.087-13.608,11.783
				c-5.323,4.154-10.414,8.597-15.25,13.308c-2.732,3.077-6.429,5.134-10.483,5.833h-11.05c-4.131-0.62-7.911-2.677-10.675-5.808
				c-4.844-4.721-9.943-9.172-15.275-13.333c-4.716-3.684-9.244-7.603-13.567-11.742C347.3,386.767,337.917,372.575,337.917,364.034
				z M442.1,455.1c-26.828,7.6-55.239,7.6-82.067,0v0l6.767-27.796c2.17,1.867,4.252,3.725,6.017,5.529
				c5.858,6.405,13.957,10.309,22.616,10.9H406.7c8.671-0.596,16.779-4.508,22.642-10.925c1.758-1.798,3.814-3.652,5.987-5.521
				L442.1,455.1z M317.075,494.934c10.618-9.132,21.946-17.403,33.877-24.735c32.627,10.225,67.602,10.225,100.229,0
				c11.931,7.333,23.259,15.604,33.877,24.735H317.075z"/>
			<path d="M102.4,153.6c2.264,0.001,4.435-0.897,6.035-2.498s2.499-3.772,2.498-6.035V128c0-4.713-3.82-8.533-8.533-8.533
				s-8.533,3.82-8.533,8.533v17.067c-0.001,2.264,0.897,4.435,2.498,6.035S100.137,153.602,102.4,153.6z"/>
			<path d="M170.667,153.6c2.264,0.001,4.435-0.897,6.035-2.498s2.499-3.772,2.498-6.035V128c0-4.713-3.82-8.533-8.533-8.533
				s-8.533,3.82-8.533,8.533v17.067c-0.001,2.264,0.897,4.435,2.498,6.035S168.403,153.602,170.667,153.6z"/>
			<path d="M102.4,204.809c8.062,10.741,20.71,17.06,34.14,17.058c13.43-0.002,26.076-6.324,34.135-17.067l5.108-6.833
				c3.876-5.171,4.498-12.087,1.608-17.867s-8.797-9.431-15.258-9.433h-51.2c-6.469-0.022-12.387,3.637-15.258,9.433
				c-2.919,5.773-2.298,12.704,1.6,17.867L102.4,204.809z M162.125,187.734l-5.108,6.825c-4.834,6.446-12.42,10.24-20.477,10.242
				c-8.057,0.002-15.645-3.789-20.481-10.233l-5.125-6.833H162.125z"/>
			<path d="M76.8,256v25.6c0.015,14.132,11.468,25.585,25.6,25.6h68.267c14.132-0.015,25.585-11.468,25.6-25.6V256h17.067
				c14.132-0.015,25.585-11.468,25.6-25.6v-17.929c19.865-4.055,34.133-21.529,34.133-41.804c0-20.275-14.268-37.749-34.133-41.804
				v-17.929c-0.015-14.132-11.468-25.585-25.6-25.6h-68.273l13.656-10.242c3.498-2.619,4.452-7.458,2.208-11.208l-13.241-22.117
				c3.797-4.534,5.89-10.253,5.916-16.167c0-10.825-6.809-20.48-17.006-24.114c-10.197-3.634-21.577-0.461-28.423,7.925
				c-6.846,8.385-7.677,20.171-2.077,29.434c5.601,9.264,16.423,14.003,27.029,11.837l9.202,15.368l-25.698,19.283H59.734
				c-14.132,0.015-25.585,11.468-25.6,25.6v17.929C14.268,132.918,0,150.392,0,170.667c0,20.275,14.268,37.749,34.133,41.804V230.4
				c0.015,14.132,11.468,25.585,25.6,25.6H76.8z M238.934,146.525c10.228,3.619,17.066,13.292,17.066,24.142
				s-6.837,20.522-17.066,24.142V146.525z M128,34.134c-4.713,0-8.533-3.821-8.533-8.533s3.82-8.533,8.533-8.533
				c4.713,0,8.533,3.82,8.533,8.533C136.53,30.312,132.712,34.131,128,34.134z M34.134,194.809
				c-10.228-3.619-17.066-13.292-17.066-24.142s6.837-20.522,17.066-24.142V194.809z M179.2,281.6
				c-0.003,4.711-3.822,8.53-8.533,8.533H102.4c-4.712-0.003-8.53-3.822-8.533-8.533V256H179.2V281.6z M51.2,230.4V110.934
				c0.003-4.712,3.822-8.53,8.533-8.533h153.6c4.711,0.003,8.53,3.822,8.533,8.533V230.4c-0.003,4.711-3.822,8.53-8.533,8.533
				h-153.6C55.022,238.931,51.203,235.112,51.2,230.4z"/>
			<path d="M489.025,0h-158.85c-12.623-0.045-22.9,10.136-22.975,22.758V179.2c-0.002,3.333,1.937,6.362,4.965,7.754
				c3.028,1.392,6.59,0.893,9.118-1.279l57.342-49.142h110.4c12.623,0.045,22.9-10.136,22.975-22.758V22.759
				C511.926,10.136,501.648-0.045,489.025,0z M494.934,113.775c-0.063,3.202-2.706,5.748-5.908,5.692H375.467
				c-2.037-0.002-4.007,0.728-5.55,2.058l-45.65,39.125V22.759c0.063-3.202,2.706-5.748,5.908-5.692h158.85
				c3.202-0.056,5.845,2.49,5.908,5.692V113.775z"/>
			<path d="M418.134,42.667h-68.267c-4.713,0-8.533,3.82-8.533,8.533s3.82,8.533,8.533,8.533h68.267c4.713,0,8.533-3.82,8.533-8.533
				S422.846,42.667,418.134,42.667z"/>
			<path d="M469.334,42.667h-17.067c-4.713,0-8.533,3.82-8.533,8.533s3.821,8.533,8.533,8.533h17.067
				c4.713,0,8.533-3.82,8.533-8.533S474.046,42.667,469.334,42.667z"/>
			<path d="M424.192,79.275c-0.419-0.387-0.877-0.731-1.367-1.025c-0.434-0.339-0.925-0.599-1.45-0.767
				c-0.51-0.259-1.059-0.433-1.625-0.517c-1.094-0.25-2.231-0.25-3.325,0c-0.534,0.096-1.05,0.271-1.533,0.517
				c-0.546,0.184-1.065,0.442-1.542,0.767c-0.445,0.316-0.871,0.658-1.276,1.025c-0.788,0.821-1.426,1.774-1.883,2.817
				c-1.237,3.202-0.502,6.832,1.883,9.301c0.829,0.754,1.782,1.36,2.817,1.792c2.065,0.911,4.418,0.911,6.483,0
				c1.044-0.414,2-1.022,2.817-1.792c2.444-2.441,3.154-6.125,1.792-9.3C425.592,81.037,424.982,80.077,424.192,79.275z"/>
			<path d="M384,76.8h-34.133c-4.713,0-8.533,3.82-8.533,8.533s3.82,8.533,8.533,8.533H384c4.713,0,8.533-3.821,8.533-8.533
				S388.713,76.8,384,76.8z"/>
			<path d="M298.017,380.735c-1.321-3.189-4.432-5.268-7.883-5.268H74.175c-12.623-0.045-22.9,10.136-22.975,22.758v91.017
				c0.075,12.623,10.352,22.803,22.975,22.758h158.85c12.623,0.045,22.9-10.136,22.975-22.758V430.2l40.166-40.166
				C298.607,387.593,299.337,383.923,298.017,380.735z M241.434,420.634c-1.601,1.6-2.5,3.77-2.5,6.033v62.575
				c-0.063,3.202-2.706,5.748-5.908,5.692H74.175c-3.202,0.056-5.845-2.49-5.908-5.692v-91.017c0.063-3.202,2.706-5.748,5.908-5.692
				l195.358-0.001L241.434,420.634z"/>
			<path d="M145.067,469.334h68.267c4.713,0,8.533-3.82,8.533-8.533s-3.821-8.533-8.533-8.533h-68.267
				c-4.713,0-8.533,3.821-8.533,8.533S140.354,469.334,145.067,469.334z"/>
			<path d="M93.867,469.334h17.067c4.713,0,8.533-3.82,8.533-8.533s-3.82-8.533-8.533-8.533H93.867
				c-4.713,0-8.533,3.821-8.533,8.533S89.154,469.334,93.867,469.334z"/>
			<path d="M145.067,435.2c1.115-0.014,2.216-0.246,3.242-0.683c1.034-0.434,1.986-1.04,2.817-1.792
				c2.444-2.441,3.154-6.125,1.792-9.3c-0.432-1.035-1.038-1.987-1.792-2.817c-2.05-2.002-4.956-2.866-7.767-2.308
				c-0.534,0.096-1.05,0.27-1.533,0.517c-0.546,0.184-1.065,0.442-1.542,0.767c-0.445,0.316-0.871,0.658-1.275,1.025
				c-0.754,0.829-1.36,1.782-1.792,2.817c-1.124,2.624-0.847,5.638,0.737,8.014S142.212,435.229,145.067,435.2z"/>
			<path d="M179.2,435.2h34.133c4.713,0,8.533-3.82,8.533-8.533s-3.821-8.533-8.533-8.533H179.2c-4.713,0-8.533,3.82-8.533,8.533
				S174.487,435.2,179.2,435.2z"/>
		</g>
	</g>
</g>
<g>
</g>
<g>
</g>
<g>
</g>
<g>
</g>
<g>
</g>
<g>
</g>
<g>
</g>
<g>
</g>
<g>
</g>
<g>
</g>
<g>
</g>
<g>
</g>
<g>
</g>
<g>
</g>
<g>
</g>
</svg>
