<?xml version="1.0"?>
<svg xmlns="http://www.w3.org/2000/svg" id="outline" viewBox="0 0 512 512" width="512" height="512"><path d="M488,328H344a8.00008,8.00008,0,0,0-8,8v36.686l-70.627-70.62647A47.68439,47.68439,0,0,0,231.43164,288H207.38989A63.58579,63.58579,0,0,0,216,256V208h40V192H221.76611l-16.70654-50.12012A31.95915,31.95915,0,0,0,174.70166,120H129.29834a31.95915,31.95915,0,0,0-30.35791,21.87988L82.23389,192H48v16H88v48a63.58579,63.58579,0,0,0,8.61011,32H80a64.07239,64.07239,0,0,0-64,64V496H32V352a48.05468,48.05468,0,0,1,48-48h29.7356a63.82123,63.82123,0,0,0,84.5288,0h37.16724a31.78649,31.78649,0,0,1,22.62744,9.373L336,395.314V448H323.314l2.34278-2.34277a8.00091,8.00091,0,0,0,1.49853-9.23535l-15.0498-30.09961a40.38139,40.38139,0,0,0-45.91358-21.11622l-10.9375,2.73438-33.59765-33.59766A8.00038,8.00038,0,0,0,208,360v39.75415l-61.5459,15.38647-44.79736-44.79785L90.34326,381.65723l48,48a7.9954,7.9954,0,0,0,7.59717,2.10351l88.81274-22.20288,11.9961,35.98853-64.84644,27.7915A82.3992,82.3992,0,0,1,91.1792,455.86523L53.65674,418.34277,42.34326,429.65723l37.52246,37.52246A98.39989,98.39989,0,0,0,188.20605,488.044l35.81165-15.34766A24.02383,24.02383,0,0,0,248,496H488a8.00008,8.00008,0,0,0,8-8V336A8.00008,8.00008,0,0,0,488,328ZM104,256v-9.37622A23.88238,23.88238,0,0,0,112,248h24a7.99967,7.99967,0,0,0,7.15527-4.42188l4.42237-8.84472a4.94416,4.94416,0,0,1,8.84472,0l4.42237,8.84472A7.99967,7.99967,0,0,0,168,248h24a23.88238,23.88238,0,0,0,8-1.37622V256a48.06511,48.06511,0,0,1-.67944,8h-8.69312a27.13451,27.13451,0,0,1-19.314-8,27.31316,27.31316,0,0,0-38.627,0,27.13451,27.13451,0,0,1-19.314,8h-8.69312A48.06511,48.06511,0,0,1,104,256Zm25.29834-120h45.40332a15.97945,15.97945,0,0,1,15.1792,10.94043L194.234,160H109.766l4.35315-13.05957A15.97945,15.97945,0,0,1,129.29834,136Zm-24.86572,40h95.13476l5.33325,16H99.09937ZM104,208h96v16a8.00917,8.00917,0,0,1-8,8H172.94434l-2.21143-4.42285a20.94437,20.94437,0,0,0-37.46582,0L131.05566,232H112a8.00917,8.00917,0,0,1-8-8Zm48,96a48.01724,48.01724,0,0,1-41.54248-24h2.915A43.03115,43.03115,0,0,0,144,267.31445a11.31192,11.31192,0,0,1,16,0A43.03115,43.03115,0,0,0,190.62744,280h2.915A48.01724,48.01724,0,0,1,152,304Zm72,75.31348,13.15234,13.15258L224,395.75415Zm26.32141,26.35229,19.74939-4.93725a24.38242,24.38242,0,0,1,27.72412,12.75l12.47119,24.9414-7.28564,7.28613-18.543-12.3623a8.00342,8.00342,0,0,0-7.58887-.69727l-15.342,6.5752ZM240,472v-6.15332L244.30908,464H336v16H248A8.00917,8.00917,0,0,1,240,472Zm240,8H352V344H480Z"/><path d="M416,432a24,24,0,1,0-24-24A24.02718,24.02718,0,0,0,416,432Zm0-32a8,8,0,1,1-8,8A8.00917,8.00917,0,0,1,416,400Z"/><path d="M320,224a24,24,0,1,0,24-24A24.02718,24.02718,0,0,0,320,224Zm32,0a8,8,0,1,1-8-8A8.00917,8.00917,0,0,1,352,224Z"/><path d="M374.18653,98.92773A7.99889,7.99889,0,0,0,368,96H320a8.00012,8.00012,0,0,0-7.84473,9.56934l16,80A8,8,0,0,0,336,192h16a8,8,0,0,0,7.84473-6.43066l16-80A8.0025,8.0025,0,0,0,374.18653,98.92773ZM345.44142,176H342.5586l-12.80029-64h28.4834Z"/><path d="M377.1084,34.14355a35.10183,35.10183,0,0,0-61.46778.001l-74.645,135.29492,14.00878,7.72852,74.646-135.29492a19.102,19.102,0,0,1,33.44922,0l117.89551,213.6875A11.08439,11.08439,0,0,1,471.29,272H272v16H471.29a27.08386,27.08386,0,0,0,23.71435-40.168Z"/></svg>
