<svg id="Capa_1" enable-background="new 0 0 512.142 512.142" height="512" viewBox="0 0 512.142 512.142" width="512" xmlns="http://www.w3.org/2000/svg"><g><path d="m478.064 75.234h-58.008c-4.143 0-7.5 3.358-7.5 7.5s3.357 7.5 7.5 7.5h58.008c10.021 0 18.174 8.153 18.174 18.174v264.811h-480.334v-264.811c0-10.021 8.152-18.174 18.174-18.174h58.008c4.143 0 7.5-3.358 7.5-7.5s-3.357-7.5-7.5-7.5h-58.008c-18.292 0-33.174 14.882-33.174 33.174v288.962c0 18.292 14.882 33.174 33.174 33.174h125.927v33.769l-20.373 28.411c-2.693 3.755-3.055 8.642-.944 12.753 2.11 4.111 6.292 6.665 10.913 6.665h211.941c4.621 0 8.803-2.554 10.913-6.665s1.749-8.998-.944-12.752l-19.471-27.153c-.143-.927-.453-1.797-.902-2.579v-32.449h126.927c18.292 0 33.174-14.882 33.174-33.174v-288.962c-.001-18.292-14.883-33.174-33.175-33.174zm0 340.309h-167.243c-4.143 0-7.5 3.358-7.5 7.5s3.357 7.5 7.5 7.5h25.316v28.68h-13.229c-4.143 0-7.5 3.358-7.5 7.5s3.357 7.5 7.5 7.5h16.879l16.434 22.918h-201.3l16.434-22.918h17.879c4.143 0 7.5-3.358 7.5-7.5s-3.357-7.5-7.5-7.5h-14.229v-28.68h103.854c4.143 0 7.5-3.358 7.5-7.5s-3.357-7.5-7.5-7.5h-244.781c-10.021 0-18.174-8.153-18.174-18.174v-9.151h480.334v9.151c0 10.022-8.153 18.174-18.174 18.174z"/><path d="m311.997 155.489c3.894 1.418 8.195-.587 9.615-4.478 2.787-7.646 4.2-15.682 4.2-23.882 0-38.456-31.286-69.742-69.741-69.742s-69.741 31.286-69.741 69.742 31.286 69.742 69.741 69.742c16.454 0 32.435-5.851 44.999-16.476 3.163-2.675 3.559-7.407.884-10.57-2.673-3.162-7.405-3.559-10.569-.884-9.859 8.338-22.401 12.93-35.313 12.93-30.185 0-54.741-24.557-54.741-54.742s24.557-54.742 54.741-54.742 54.741 24.557 54.741 54.742c0 6.443-1.108 12.75-3.294 18.746-1.419 3.891.586 8.196 4.478 9.614z"/><path d="m224.614 127.129c0 17.346 14.111 31.457 31.457 31.457s31.457-14.111 31.457-31.457-14.111-31.457-31.457-31.457-31.457 14.111-31.457 31.457zm47.914 0c0 9.074-7.383 16.457-16.457 16.457s-16.457-7.383-16.457-16.457 7.383-16.457 16.457-16.457 16.457 7.383 16.457 16.457z"/><path d="m105.703 45.883c10.024 0 18.561-6.465 21.676-15.441h66.766c-10.734 5.104-21.529 11.497-32.352 19.177-26.168 18.57-46.994 40.779-59.857 56.14-10.368 12.382-10.368 30.357 0 42.74 3.182 3.799 6.525 7.624 9.937 11.366 2.792 3.061 7.536 3.281 10.596.49 3.062-2.791 3.28-7.534.49-10.595-3.271-3.588-6.475-7.252-9.522-10.891-5.695-6.803-5.695-16.678 0-23.48 21.388-25.541 78.101-84.947 142.636-84.947s121.248 59.406 142.636 84.947c5.695 6.802 5.695 16.677 0 23.48-21.389 25.541-78.102 84.947-142.636 84.947-44.396 0-84.785-28.171-110.849-51.805-3.069-2.782-7.813-2.551-10.594.519-2.783 3.068-2.551 7.812.518 10.594 15.506 14.06 35.827 29.604 59.214 40.693h-66.981c-3.115-8.977-11.652-15.442-21.676-15.442-12.65 0-22.942 10.292-22.942 22.942s10.292 22.941 22.942 22.941c10.024 0 18.561-6.465 21.676-15.441h257.385c3.115 8.977 11.652 15.441 21.676 15.441 12.65 0 22.942-10.292 22.942-22.941 0-12.65-10.292-22.942-22.942-22.942-10.024 0-18.561 6.465-21.676 15.442h-66.767c10.734-5.104 21.53-11.497 32.353-19.178 26.168-18.57 46.994-40.778 59.857-56.14 10.368-12.383 10.368-30.357 0-42.74-12.863-15.361-33.689-37.57-59.857-56.14-10.823-7.68-21.618-14.074-32.352-19.177h66.766c3.115 8.977 11.652 15.441 21.676 15.441 12.65 0 22.942-10.292 22.942-22.941-.003-12.65-10.295-22.942-22.945-22.942-10.024 0-18.561 6.465-21.676 15.442h-257.384c-3.115-8.977-11.652-15.442-21.676-15.442-12.651 0-22.943 10.292-22.943 22.942s10.292 22.941 22.943 22.941zm0 193.375c-4.38 0-7.942-3.563-7.942-7.941 0-4.379 3.563-7.942 7.942-7.942s7.941 3.563 7.941 7.942c0 4.378-3.562 7.941-7.941 7.941zm300.736-15.883c4.38 0 7.942 3.563 7.942 7.942s-3.563 7.941-7.942 7.941-7.941-3.563-7.941-7.941c0-4.38 3.562-7.942 7.941-7.942zm0-208.375c4.38 0 7.942 3.563 7.942 7.942s-3.563 7.941-7.942 7.941-7.941-3.563-7.941-7.941c0-4.379 3.562-7.942 7.941-7.942zm-300.736 0c4.379 0 7.941 3.563 7.941 7.942s-3.563 7.941-7.941 7.941c-4.38 0-7.942-3.563-7.942-7.941-.001-4.379 3.562-7.942 7.942-7.942z"/></g></svg>