<svg id="Capa_1" enable-background="new 0 0 512.022 512.022" height="512" viewBox="0 0 512.022 512.022" width="512" xmlns="http://www.w3.org/2000/svg"><g><g><path d="m436.639 421.029h-16.729c-4.143 0-7.5 3.357-7.5 7.5s3.357 7.5 7.5 7.5h16.729c4.143 0 7.5-3.357 7.5-7.5s-3.358-7.5-7.5-7.5z"/><path d="m255.441 139.206c-32.093 0-62.266 12.498-84.959 35.191-2.929 2.93-2.929 7.678 0 10.607 2.931 2.929 7.678 2.928 10.607 0 19.859-19.861 46.265-30.799 74.352-30.799s54.492 10.938 74.353 30.799c2.93 2.928 7.678 2.928 10.607 0 2.929-2.93 2.929-7.678 0-10.607-22.694-22.693-52.866-35.191-84.96-35.191z"/><path d="m314.826 210.58c2.929-2.93 2.929-7.678 0-10.607-32.746-32.744-86.023-32.744-118.77 0-2.929 2.93-2.929 7.678 0 10.607 2.93 2.928 7.678 2.928 10.607 0 26.895-26.896 70.66-26.896 97.555 0 2.931 2.928 7.678 2.927 10.608 0z"/><path d="m221.632 225.546c-2.929 2.93-2.929 7.678 0 10.607 2.93 2.928 7.678 2.928 10.607 0 12.793-12.795 33.611-12.795 46.404 0 2.931 2.929 7.678 2.928 10.607 0 2.929-2.93 2.929-7.678 0-10.607-18.642-18.642-48.976-18.642-67.618 0z"/><path d="m316.79 316.458c4.143 0 7.5-3.357 7.5-7.5s-3.357-7.5-7.5-7.5h-233.496v-201.369h345.412v72.174c0 4.143 3.357 7.5 7.5 7.5s7.5-3.357 7.5-7.5v-72.812c0-7.919-6.442-14.361-14.361-14.361h-346.69c-7.919 0-14.361 6.442-14.361 14.361v202.646c0 7.919 6.442 14.361 14.361 14.361z"/><path d="m488.928 199.88h-10.016v-116.498c0-18.472-15.027-33.499-33.499-33.499h-378.826c-18.472 0-33.499 15.027-33.499 33.499v253.281h-13.162c-10.988.001-19.926 8.939-19.926 19.925 0 30.453 24.775 55.229 55.229 55.229h289.296v27.227c0 12.735 10.36 23.096 23.096 23.096h121.308c12.734 0 23.095-10.36 23.095-23.096v-216.068c-.002-12.735-10.362-23.096-23.096-23.096zm-440.84-116.498c0-10.2 8.299-18.499 18.499-18.499h378.826c10.2 0 18.499 8.299 18.499 18.499v116.498h-96.292c-12.735 0-23.096 10.36-23.096 23.096v113.688c-11.415 0-281.752 0-296.437 0v-253.282zm135.612 268.282h126.6v7.538c0 4.156-3.382 7.538-7.539 7.538h-111.522c-4.157 0-7.539-3.382-7.539-7.538zm-128.471 45.153c-22.182 0-40.229-18.047-40.229-40.229 0-2.716 2.21-4.925 4.926-4.925h148.774v7.538c0 12.428 10.111 22.538 22.539 22.538h111.521c12.428 0 22.539-10.11 22.539-22.538v-7.538h19.225v45.153h-289.295zm441.793 42.226c0 4.464-3.631 8.096-8.095 8.096h-121.307c-4.464 0-8.096-3.632-8.096-8.096v-216.067c0-4.464 3.632-8.096 8.096-8.096h121.308c4.464 0 8.095 3.632 8.095 8.096v216.067z"/><path d="m471.155 227.307h-85.763c-7.411 0-13.44 6.029-13.44 13.44v155.324c0 7.411 6.029 13.44 13.44 13.44h85.763c7.411 0 13.44-6.029 13.44-13.44v-155.323c.001-7.412-6.029-13.441-13.44-13.441zm-1.559 167.205h-82.644v-152.205h82.644z"/></g></g></svg>