<svg height="512" viewBox="0 0 58 60" width="512" xmlns="http://www.w3.org/2000/svg"><g id="Page-1" fill="none" fill-rule="evenodd"><g id="010---mobile-alarm" fill="rgb(0,0,0)" fill-rule="nonzero"><path id="Shape" d="m4 60h28c2.209139 0 4-1.790861 4-4v-8.09c2.5125124-.4294053 4.4805947-2.3974876 4.91-4.91h7.09c.5522847 0 1-.4477153 1-1v-3c-.0068148-1.8184116-1.2393149-3.4034067-3-3.858v-11.142c-.0082884-4.6633388-2.9535588-8.8156413-7.352-10.365.4838792-1.072545.4682424-2.3042542-.042709-3.3641695-.5109514-1.05991534-1.4648156-1.83933506-2.605291-2.1288305v-4.142c0-2.209139-1.790861-4-4-4h-28c-2.209139 0-4 1.790861-4 4v52c0 2.209139 1.790861 4 4 4zm28-2h-28c-1.1045695 0-2-.8954305-2-2v-1.556c.60534654.3599241 1.29574677.5518554 2 .556h28c.7042532-.0041446 1.3946535-.1960759 2-.556v1.556c0 1.1045695-.8954305 2-2 2zm3-12c-1.8184116-.0068148-3.4034067-1.2393149-3.858-3h7.716c-.4545933 1.7606851-2.0395884 2.9931852-3.858 3zm12-7v2h-24v-2c0-1.1045695.8954305-2 2-2h20c1.1045695 0 2 .8954305 2 2zm-3-15v11h-18v-11c0-4.9705627 4.0294373-9 9-9s9 4.0294373 9 9zm-7-12c.0005112.4063473-.1241387.8029925-.357 1.136-1.0878277-.1813415-2.1981723-.1813415-3.286 0-.2328613-.3330075-.3575112-.7296527-.357-1.136 0-1.1045695.8954305-2 2-2s2 .8954305 2 2zm-11.309-10-1.283 1.368c-.3778598.40298537-.9055734.63173367-1.458.632h-9.9c-.5526257-.00070589-1.0804819-.22935917-1.459-.632l-1.282-1.368zm-23.691 2c0-1.1045695.8954305-2 2-2h3.567l2.565 2.736c.7573847.80478557 1.8128722 1.26199467 2.918 1.264h9.9c1.105276-.00129287 2.1610336-.45861896 2.918-1.264l2.565-2.736h3.567c1.1045695 0 2 .8954305 2 2v4.142c-1.1404754.28949544-2.0943396 1.06891516-2.605291 2.1288305-.5109514 1.0599153-.5265882 2.2916245-.042709 3.3641695-4.3984412 1.5493587-7.3437116 5.7016612-7.352 10.365v11.142c-1.7606851.4545933-2.9931852 2.0395884-3 3.858v3c0 .5522847.4477153 1 1 1h7.09c.4294053 2.5125124 2.3974876 4.4805947 4.91 4.91v3.09c0 1.1045695-.8954305 2-2 2h-28c-1.1045695 0-2-.8954305-2-2z"/><path id="Shape" d="m8 33c.55228475 0 1-.4477153 1-1 .00716485-6.624447 5.375553-11.9928352 12-12 .5522847 0 1-.4477153 1-1s-.4477153-1-1-1c-7.7285595.0082673-13.99173268 6.2714405-14 14 0 .5522847.44771525 1 1 1z"/><path id="Shape" d="m21 22c-5.5203344.0060624-9.9939376 4.4796656-10 10 0 .5522847.4477153 1 1 1s1-.4477153 1-1c.0049599-4.4162219 3.5837781-7.9950401 8-8 .5522847 0 1-.4477153 1-1s-.4477153-1-1-1z"/><path id="Shape" d="m21 26c-3.3123376.0033074-5.9966926 2.6876624-6 6 0 .5522847.4477153 1 1 1s1-.4477153 1-1c0-2.209139 1.790861-4 4-4 .5522847 0 1-.4477153 1-1s-.4477153-1-1-1z"/><path id="Shape" d="m44 58c-.5522847 0-1 .4477153-1 1s.4477153 1 1 1c7.7285595-.0082673 13.9917327-6.2714405 14-14 0-.5522847-.4477153-1-1-1s-1 .4477153-1 1c-.0071648 6.624447-5.375553 11.9928352-12 12z"/><path id="Shape" d="m44 54c-.5522847 0-1 .4477153-1 1s.4477153 1 1 1c5.5203344-.0060624 9.9939376-4.4796656 10-10 0-.5522847-.4477153-1-1-1s-1 .4477153-1 1c-.0049599 4.4162219-3.5837781 7.9950401-8 8z"/><path id="Shape" d="m48 46c0 2.209139-1.790861 4-4 4-.5522847 0-1 .4477153-1 1s.4477153 1 1 1c3.3123376-.0033074 5.9966926-2.6876624 6-6 0-.5522847-.4477153-1-1-1s-1 .4477153-1 1z"/></g></g></svg>